<?xml version="1.0" standalone="no"?>
<!DOCTYPE svg PUBLIC "-//W3C//DTD SVG 20010904//EN"
 "http://www.w3.org/TR/2001/REC-SVG-20010904/DTD/svg10.dtd">
<svg version="1.0" xmlns="http://www.w3.org/2000/svg"
 width="736.000000pt" height="1038.000000pt" viewBox="0 0 736.000000 1038.000000"
 preserveAspectRatio="xMidYMid meet">

<g transform="translate(0.000000,1038.000000) scale(0.100000,-0.100000)"
fill="#000000" stroke="none">
<path d="M0 5190 l0 -5190 3680 0 3680 0 0 5190 0 5190 -3680 0 -3680 0 0
-5190z m5370 2807 c255 -257 468 -474 472 -481 5 -8 7 -263 6 -568 l-3 -553
-805 0 -805 0 -5 220 -5 221 -41 37 -41 37 -462 0 -461 0 -40 -41 -40 -41 0
-394 0 -394 36 -40 36 -40 842 0 841 0 461 -459 c254 -252 469 -469 478 -482
15 -21 16 -123 16 -1103 l0 -1079 -262 -259 c-145 -142 -354 -349 -465 -458
l-202 -200 -1233 0 -1233 0 -468 468 -467 468 2 574 3 575 805 0 805 0 5 -222
c5 -219 5 -222 30 -250 14 -15 30 -31 35 -35 6 -4 221 -8 480 -8 l469 0 38 37
38 37 0 399 0 399 -39 39 -39 39 -833 0 -834 0 -473 473 c-260 259 -477 479
-482 487 -6 9 -10 422 -10 1064 l0 1049 473 473 c260 261 483 477 495 481 11
4 560 6 1219 3 l1198 -5 465 -468z"/>
<path d="M2089 7901 l-449 -448 0 -995 0 -994 447 -447 447 -447 827 0 827 0
49 -39 c26 -21 63 -54 80 -73 l33 -34 0 -459 1 -459 -70 -67 c-45 -42 -82 -69
-102 -73 -17 -3 -247 -6 -511 -6 -392 0 -484 3 -506 14 -15 8 -55 41 -90 74
l-62 59 0 174 c0 96 -4 180 -8 187 -7 10 -150 12 -683 10 l-674 -3 -3 -484 -2
-484 434 -434 433 -433 1178 0 1177 0 424 422 424 423 0 1037 0 1037 -432 435
-433 435 -145 5 c-80 3 -460 6 -845 6 l-700 0 -72 68 -73 67 0 456 0 456 75
72 75 71 519 0 519 0 77 -73 76 -72 0 -177 c0 -136 3 -179 13 -187 20 -16
1334 -11 1344 6 4 6 5 220 2 476 l-5 465 -315 322 c-173 177 -367 375 -432
441 l-116 119 -1152 0 -1153 0 -448 -449z m3106 -91 l400 -400 3 -371 c2 -270
0 -375 -9 -385 -10 -12 -102 -14 -555 -14 -508 0 -543 1 -547 18 -2 9 -5 76
-6 147 l-2 130 -112 112 -112 113 -571 0 -570 0 -112 -112 -112 -113 0 -504 0
-504 114 -113 113 -114 840 0 840 0 100 -102 c55 -57 236 -237 401 -402 l302
-299 0 -971 0 -972 -387 -387 -387 -387 -1137 0 -1136 0 -388 388 -387 387 -5
372 c-3 204 -3 383 1 397 l6 26 553 -2 552 -3 3 -142 3 -142 110 -111 109
-110 575 0 574 0 111 108 110 109 2 354 c1 195 2 423 2 507 l-1 154 -111 111
-112 112 -842 3 -841 2 -176 180 c-97 98 -279 283 -404 409 l-228 230 3 945 3
945 320 321 c176 177 356 357 400 400 l80 80 1110 0 1110 0 400 -400z"/>
</g>
</svg>
