<svg xmlns="http://www.w3.org/2000/svg" width="831" height="600" viewBox="0 0 831 600">
<g>
<path d="M 0.00 0.00 L 831.00 0.00 L 831.00 600.00 L 0.00 600.00 ZM 411.71 542.37 C412.65,543.32 437.85,543.08 451.78,542.00 C478.30,539.94 502.73,531.27 524.50,516.19 C536.23,508.06 555.27,488.57 563.28,476.50 C574.33,459.82 582.32,439.82 585.63,420.50 C588.19,405.61 587.98,382.63 585.15,368.27 C581.86,351.53 574.43,331.45 568.04,322.06 C567.08,320.65 564.10,316.12 561.41,312.00 C555.55,302.99 535.12,282.27 526.00,276.09 C508.08,263.93 489.96,256.06 470.00,251.77 C461.25,249.88 455.71,249.67 399.50,249.07 C330.79,248.34 334.26,248.73 323.69,240.44 C310.13,229.79 304.79,212.48 309.96,195.88 C311.04,192.42 311.77,189.44 311.59,189.26 C310.45,188.11 287.27,199.58 280.00,204.89 C253.16,224.46 238.14,253.99 234.46,294.35 L 233.75 302.20 L 241.62 310.19 C255.94,324.71 265.32,331.63 282.10,340.06 C294.90,346.49 303.01,349.30 318.50,352.70 L 330.50 355.34 L 390.50 355.92 C448.83,356.49 450.65,356.56 455.72,358.65 C465.78,362.77 473.14,369.78 477.76,379.64 C480.42,385.34 480.50,385.97 480.41,402.50 C480.29,428.07 475.87,446.09 463.53,471.50 C453.35,492.45 442.03,508.29 420.90,531.12 C415.50,536.97 411.36,542.03 411.71,542.37 ZM 214.80 270.25 C217.27,275.61 219.65,280.00 220.08,280.00 C220.51,280.00 221.36,277.41 221.98,274.25 C226.76,249.77 236.56,228.17 250.23,212.00 C267.66,191.39 299.21,174.36 328.00,170.04 C332.99,169.29 364.93,168.82 423.50,168.62 C471.90,168.45 514.35,168.13 517.84,167.90 C521.32,167.67 524.32,167.71 524.49,167.99 C525.17,169.08 555.00,169.20 555.00,168.11 C555.00,167.52 553.99,166.84 552.75,166.60 C544.80,165.07 532.10,163.69 523.69,163.44 C518.29,163.27 513.34,162.74 512.69,162.24 C512.03,161.75 509.48,161.23 507.00,161.09 C504.52,160.94 501.38,160.71 500.00,160.57 C498.62,160.43 495.64,160.24 493.37,160.16 C490.12,160.03 489.12,159.56 488.70,157.95 C488.15,155.87 485.05,155.58 482.20,157.36 C480.55,158.40 477.67,157.34 478.50,156.01 C479.08,155.06 474.45,154.38 471.00,154.92 C467.12,155.52 458.41,154.65 458.75,153.70 C458.89,153.32 459.00,152.55 459.00,152.00 C459.00,151.45 460.54,151.00 462.42,151.00 C464.30,151.00 466.01,150.47 466.23,149.82 C466.52,148.94 467.65,149.04 470.56,150.18 C476.03,152.33 481.24,153.13 482.91,152.08 C483.78,151.53 485.04,151.63 486.20,152.34 C487.78,153.31 488.39,153.11 489.89,151.13 C491.37,149.19 492.04,148.95 493.68,149.83 C494.77,150.41 496.19,151.53 496.84,152.31 C497.51,153.11 499.80,153.73 502.12,153.73 C504.37,153.73 506.56,154.29 506.98,154.97 C507.47,155.76 507.98,155.85 508.38,155.20 C508.73,154.63 510.80,154.43 513.15,154.75 C516.36,155.18 517.59,154.92 518.56,153.59 C519.31,152.56 520.06,152.28 520.44,152.90 C520.78,153.46 521.72,153.66 522.53,153.35 C523.34,153.04 524.00,153.23 524.00,153.78 C524.00,154.33 525.46,155.01 527.25,155.29 C529.04,155.58 533.42,156.47 536.98,157.28 C540.55,158.09 543.98,158.56 544.61,158.32 C545.23,158.08 546.49,158.63 547.40,159.54 C549.59,161.74 552.00,160.68 552.00,157.53 C552.00,154.72 551.69,154.56 549.04,155.98 C547.71,156.69 546.87,156.55 545.98,155.48 C545.31,154.67 545.15,153.99 545.63,153.98 C546.11,153.98 545.83,153.54 545.00,153.01 C544.01,152.37 546.41,152.26 552.00,152.67 C556.67,153.02 560.65,153.69 560.83,154.15 C561.45,155.72 563.92,155.02 565.03,152.95 C565.79,151.53 566.72,151.09 568.07,151.52 C569.33,151.92 570.22,151.59 570.61,150.57 C570.94,149.71 572.26,149.00 573.55,149.00 C574.83,149.00 576.16,148.54 576.51,147.98 C576.86,147.42 577.66,147.29 578.30,147.69 C578.94,148.08 580.15,148.47 580.98,148.54 C581.82,148.62 583.97,149.01 585.77,149.42 C588.50,150.04 589.35,149.78 590.91,147.87 C592.50,145.89 593.00,145.76 594.39,146.90 C595.62,147.93 596.33,147.97 597.39,147.09 C598.16,146.45 599.17,146.06 599.64,146.21 C600.87,146.62 608.00,142.26 608.00,141.10 C608.00,139.48 604.43,138.89 601.47,140.01 C599.87,140.62 598.42,140.70 598.08,140.19 C597.76,139.70 594.15,139.03 590.06,138.69 C584.83,138.27 582.37,137.62 581.75,136.52 C581.27,135.66 580.49,135.20 580.01,135.50 C579.53,135.79 578.92,135.67 578.64,135.23 C578.37,134.79 581.15,133.62 584.82,132.64 C594.11,130.13 596.00,129.27 596.00,127.52 C596.00,125.55 593.61,125.56 591.96,127.55 C590.99,128.72 590.49,128.80 589.92,127.87 C589.51,127.20 586.59,126.50 583.43,126.31 C579.47,126.07 577.28,125.43 576.37,124.23 C575.43,123.01 574.81,122.84 574.27,123.64 C573.85,124.27 569.45,125.10 564.50,125.49 C559.55,125.88 554.29,126.78 552.80,127.50 C550.57,128.57 549.79,128.56 548.30,127.43 C546.16,125.81 540.39,125.56 539.47,127.05 C539.02,127.77 538.43,127.78 537.58,127.07 C536.49,126.16 522.98,125.51 516.00,126.02 C512.69,126.27 504.87,126.24 497.75,125.96 C493.66,125.80 492.00,125.34 492.00,124.37 C492.00,122.55 489.36,122.61 488.66,124.44 C488.02,126.12 481.71,127.56 479.91,126.45 C479.24,126.03 477.30,125.55 475.60,125.38 C463.16,124.11 461.00,123.17 463.09,119.91 C463.87,118.71 464.16,118.72 465.08,120.00 C465.87,121.11 466.28,121.18 466.65,120.27 C466.93,119.59 468.81,118.62 470.83,118.12 C475.55,116.95 488.87,117.22 489.79,118.51 C490.73,119.82 492.92,120.24 494.87,119.50 C496.08,119.03 496.15,118.71 495.18,118.11 C494.44,117.65 495.78,117.26 498.42,117.16 C500.90,117.06 505.76,116.34 509.22,115.56 C512.67,114.77 518.49,114.16 522.14,114.19 C525.80,114.22 529.31,113.93 529.95,113.53 C530.59,113.14 532.19,113.08 533.50,113.41 C534.81,113.74 536.12,113.62 536.41,113.15 C536.70,112.68 540.86,112.27 545.66,112.25 C552.96,112.22 554.60,111.91 555.74,110.35 C557.01,108.63 556.77,108.46 552.38,108.00 C549.78,107.72 547.50,107.03 547.31,106.45 C546.93,105.28 549.75,104.93 561.50,104.67 C566.96,104.55 569.77,104.07 570.35,103.15 C571.68,101.07 569.38,99.28 567.16,100.67 C565.84,101.49 564.86,101.49 563.43,100.66 C562.37,100.05 557.17,99.48 551.88,99.41 C538.01,99.22 536.07,97.25 547.50,94.96 C558.97,92.67 563.90,92.30 564.44,93.70 C564.71,94.42 565.67,95.00 566.58,95.00 C567.52,95.00 568.00,94.44 567.71,93.68 C567.07,92.02 570.62,89.69 574.27,89.38 C577.24,89.14 583.00,86.87 583.00,85.95 C583.00,84.53 572.32,76.00 570.54,76.00 C570.24,76.00 570.00,76.62 570.00,77.38 C570.00,78.14 569.36,79.29 568.57,79.94 C567.44,80.88 566.60,80.78 564.65,79.51 C562.55,78.13 561.83,78.08 560.02,79.19 C558.16,80.32 557.69,80.25 556.48,78.61 C555.70,77.57 554.94,76.32 554.78,75.85 C554.62,75.37 552.24,75.02 549.50,75.07 C546.75,75.12 524.25,75.01 499.50,74.83 C474.75,74.65 441.38,74.59 425.34,74.70 C400.65,74.87 396.09,74.68 395.62,73.45 C395.15,72.23 397.12,71.98 407.78,71.87 C422.75,71.72 424.79,71.59 427.67,70.64 C428.86,70.24 430.10,70.35 430.42,70.87 C431.06,71.91 459.82,71.44 464.00,70.32 C467.65,69.34 471.36,69.21 472.50,70.03 C473.05,70.42 477.31,70.79 481.97,70.84 C488.43,70.92 491.04,70.54 492.97,69.23 C495.13,67.77 497.72,67.56 510.78,67.80 C523.33,68.02 526.68,67.77 529.55,66.41 C531.81,65.34 534.36,64.94 536.77,65.30 C542.25,66.10 553.26,64.74 553.77,63.21 C554.12,62.15 533.46,61.98 441.85,62.28 C317.42,62.70 324.27,62.34 302.69,69.42 C288.40,74.09 278.72,78.71 267.20,86.34 C249.17,98.27 237.76,109.54 225.55,127.50 C220.38,135.10 211.23,153.50 208.65,161.50 C199.92,188.48 198.85,217.43 205.58,244.50 C208.55,256.44 209.01,257.71 214.80,270.25 ZM 229.26 540.71 C229.02,541.43 253.65,541.81 307.54,541.92 C358.31,542.03 385.96,541.74 385.57,541.11 C385.24,540.58 385.42,539.86 385.98,539.51 C386.54,539.16 387.00,539.58 387.00,540.44 C387.00,541.30 387.48,542.00 388.06,542.00 C389.82,542.00 405.40,526.38 417.29,512.70 C437.11,489.90 450.33,467.96 457.91,445.27 C462.53,431.45 462.85,429.42 460.25,430.55 C458.82,431.17 457.70,431.70 456.55,432.16 C449.45,434.97 441.24,434.98 354.98,435.08 C350.03,435.09 344.82,435.09 339.34,435.10 C279.48,435.17 228.14,435.46 225.25,435.74 C218.94,436.36 218.31,437.53 224.25,437.61 C226.59,437.64 232.32,437.97 237.00,438.35 C241.68,438.72 247.82,439.13 250.65,439.26 C253.48,439.39 255.59,439.85 255.33,440.27 C255.07,440.69 262.12,440.98 271.00,440.92 C285.39,440.81 287.27,440.99 288.43,442.58 C289.63,444.21 292.29,444.37 320.87,444.50 C346.08,444.62 352.00,444.39 352.00,443.32 C352.00,441.64 352.79,441.65 354.50,443.35 C355.47,444.33 359.32,444.75 368.18,444.87 C382.15,445.05 389.82,445.88 387.97,447.02 C387.30,447.43 367.11,447.87 343.12,447.98 C268.87,448.34 260.00,448.48 260.00,449.29 C260.00,449.72 259.21,449.65 258.24,449.13 C257.28,448.61 254.69,448.30 252.49,448.43 C250.30,448.57 245.35,448.80 241.50,448.95 C237.65,449.11 235.29,449.44 236.25,449.69 C238.16,450.19 238.67,452.00 236.90,452.00 C236.30,452.00 234.55,451.26 233.02,450.35 C230.25,448.72 226.34,449.12 227.45,450.92 C228.30,452.30 225.25,452.90 218.73,452.66 C214.33,452.49 213.07,452.75 213.45,453.74 C213.85,454.79 213.51,454.81 211.75,453.87 L 209.54 452.68 L 211.77 451.69 C213.00,451.14 214.00,450.31 214.00,449.85 C214.00,448.42 210.32,448.90 209.00,450.50 C208.32,451.33 207.25,452.04 206.63,452.08 C206.01,452.13 203.99,453.93 202.13,456.08 C198.99,459.74 198.91,460.00 200.94,460.00 C202.14,460.00 202.86,460.42 202.54,460.94 C202.22,461.45 204.06,462.19 206.63,462.57 C212.32,463.43 215.79,465.12 215.24,466.77 C215.02,467.45 215.32,468.00 215.92,468.00 C216.51,468.00 217.00,467.27 217.00,466.39 C217.00,465.10 217.66,464.90 220.25,465.42 C222.04,465.77 224.39,466.07 225.47,466.08 C226.55,466.08 227.69,466.50 228.00,467.01 C228.31,467.51 230.46,468.05 232.78,468.21 C235.10,468.37 237.00,468.87 237.00,469.31 C237.00,469.76 237.79,470.00 238.75,469.84 C239.71,469.68 241.06,469.90 241.75,470.33 C244.60,472.12 242.57,472.75 235.25,472.35 C228.08,471.96 221.97,472.91 217.80,475.08 C216.77,475.61 215.85,475.57 215.49,474.98 C214.47,473.34 212.00,473.89 212.00,475.75 C212.00,477.26 213.08,477.52 219.75,477.61 C229.32,477.75 234.42,478.42 234.77,479.60 C234.91,480.10 233.00,480.64 230.52,480.80 C225.77,481.12 225.01,481.93 227.50,484.00 C228.32,484.68 229.00,484.91 229.00,484.50 C229.00,484.09 229.69,484.32 230.52,485.02 C231.36,485.72 232.30,486.04 232.60,485.73 C232.90,485.43 234.46,485.56 236.06,486.02 C237.66,486.48 239.19,486.51 239.44,486.09 C239.95,485.28 242.53,485.36 245.00,486.28 C248.93,487.73 255.37,488.03 256.15,486.79 C256.60,486.08 256.98,485.95 256.98,486.50 C256.99,487.05 259.36,487.46 262.25,487.41 C265.14,487.36 269.85,487.94 272.73,488.69 C275.60,489.44 279.65,490.00 281.73,489.95 C285.99,489.83 297.98,490.55 299.50,491.02 C300.05,491.19 301.68,490.99 303.12,490.59 C304.68,490.15 307.72,490.43 310.62,491.29 C313.43,492.12 316.37,492.41 317.56,491.97 C318.69,491.55 324.28,491.27 329.98,491.35 C337.73,491.46 340.45,491.84 340.79,492.86 C341.17,494.01 341.38,494.01 342.12,492.86 C342.85,491.73 343.17,491.75 343.98,493.00 C344.84,494.30 344.97,494.28 344.98,492.84 C345.00,491.67 345.60,491.34 347.06,491.73 C348.22,492.03 348.90,492.83 348.61,493.57 C348.32,494.34 349.01,495.05 350.31,495.30 C352.34,495.70 348.98,495.98 336.50,496.45 C333.75,496.55 328.91,496.35 325.75,496.00 C322.59,495.65 320.00,495.73 320.00,496.18 C320.00,496.63 317.75,497.00 315.00,497.00 C312.00,497.00 310.00,497.44 310.00,498.11 C310.00,498.79 308.64,499.06 306.50,498.81 C304.58,498.59 303.00,498.82 303.00,499.33 C303.00,500.96 294.64,499.23 293.25,497.32 C292.10,495.75 291.79,495.71 290.98,497.00 C290.46,497.83 290.02,498.82 290.02,499.22 C290.01,499.61 289.02,499.57 287.83,499.13 C286.64,498.69 283.92,498.65 281.79,499.04 C279.66,499.43 270.95,499.56 262.43,499.34 C253.92,499.11 246.23,499.33 245.34,499.83 C244.36,500.38 242.67,500.32 240.99,499.69 C238.84,498.88 237.43,499.04 234.50,500.43 C231.40,501.90 230.60,501.98 229.91,500.86 C229.29,499.84 226.19,499.50 217.67,499.50 C209.74,499.50 206.39,499.16 206.68,498.39 C207.17,497.11 197.06,498.34 193.14,500.04 C191.45,500.77 190.37,500.72 189.35,499.87 C188.24,498.95 187.64,498.96 186.71,499.91 C185.76,500.87 185.92,501.45 187.44,502.57 C188.51,503.36 190.36,504.00 191.57,504.00 C192.77,504.00 195.69,504.68 198.05,505.52 C201.49,506.73 202.52,506.78 203.16,505.77 C203.75,504.85 203.97,504.98 203.98,506.25 C203.99,507.21 204.45,508.00 205.00,508.00 C205.55,508.00 206.00,507.59 206.00,507.10 C206.00,505.97 214.37,506.98 214.84,508.16 C215.02,508.63 215.58,508.76 216.09,508.45 C216.59,508.14 217.00,508.36 217.00,508.94 C217.00,509.52 217.87,510.00 218.94,510.00 C220.01,510.00 221.14,510.42 221.46,510.93 C222.26,512.22 220.27,513.28 218.78,512.36 C218.11,511.95 215.83,511.73 213.73,511.88 C210.10,512.15 206.53,510.56 207.44,509.10 C207.67,508.72 206.29,508.60 204.37,508.83 C201.86,509.12 201.03,509.63 201.42,510.65 C201.72,511.44 201.22,512.36 200.29,512.72 C199.37,513.07 198.46,512.87 198.26,512.28 C197.82,510.97 186.11,511.78 184.26,513.25 C183.40,513.92 182.20,513.70 180.44,512.55 C178.43,511.24 177.55,511.12 176.45,512.04 C175.65,512.70 173.92,512.95 172.51,512.59 C169.39,511.81 169.16,513.60 172.25,514.58 C173.49,514.97 176.18,516.35 178.23,517.65 C182.19,520.15 185.00,520.68 185.00,518.94 C185.00,518.36 185.45,518.16 186.00,518.50 C186.55,518.84 187.00,518.62 187.00,518.02 C187.00,516.88 188.38,517.81 191.96,521.35 C193.28,522.65 194.67,523.02 196.67,522.61 C202.21,521.46 209.68,521.18 211.08,522.07 C212.12,522.73 211.77,522.97 209.75,522.98 C208.24,522.99 207.00,523.42 207.00,523.94 C207.00,524.45 208.01,524.82 209.25,524.76 C214.37,524.48 217.00,525.05 217.00,526.44 C217.00,528.94 218.73,529.09 222.42,526.91 C224.39,525.75 226.00,525.25 226.00,525.81 C226.00,526.36 226.90,526.58 228.00,526.29 C229.73,525.84 230.00,526.26 230.00,529.35 C230.00,531.87 230.57,533.24 231.93,533.96 C234.52,535.35 235.00,535.27 235.00,533.50 C235.00,532.67 235.34,531.96 235.75,531.92 C245.45,530.85 255.67,528.76 257.75,527.41 C258.99,526.61 260.00,526.24 260.00,526.59 C260.00,526.94 261.08,526.52 262.39,525.66 C264.67,524.17 264.76,524.20 264.26,526.13 C263.77,527.99 264.13,528.14 268.33,527.88 C270.86,527.73 273.25,527.92 273.63,528.30 C274.72,529.38 277.20,529.12 276.50,528.00 C276.12,527.39 277.59,527.00 280.25,527.00 C283.24,527.00 285.30,526.37 286.77,525.00 C289.32,522.63 291.57,522.42 292.36,524.50 C293.02,526.22 297.00,526.56 297.00,524.89 C297.00,524.23 297.70,524.08 298.75,524.52 C301.69,525.75 308.08,525.01 311.89,523.00 L 315.50 521.09 L 311.08 521.04 C308.65,521.02 306.88,520.79 307.14,520.53 C307.57,520.10 310.05,519.97 315.73,520.08 C316.96,520.11 318.22,520.54 318.53,521.05 C318.85,521.56 318.41,521.71 317.55,521.38 C316.62,521.02 316.00,521.33 316.00,522.14 C316.00,522.89 317.01,523.54 318.25,523.58 C321.35,523.69 323.38,524.33 324.18,525.45 C325.29,527.00 323.99,528.13 321.87,527.46 C320.79,527.12 319.27,527.36 318.50,528.00 C317.67,528.69 316.15,528.86 314.80,528.43 C311.14,527.27 305.87,527.81 303.95,529.55 C302.57,530.79 301.44,530.94 298.84,530.23 C294.93,529.16 293.00,529.61 293.00,531.58 C293.00,533.37 287.90,533.49 286.14,531.75 C285.13,530.75 285.01,530.85 285.55,532.25 C286.12,533.75 285.53,534.03 281.36,534.19 C272.86,534.54 271.54,534.65 269.50,535.27 C268.40,535.60 263.92,536.15 259.54,536.50 C255.16,536.85 251.34,537.29 251.04,537.47 C250.74,537.66 246.68,538.10 242.00,538.45 C230.73,539.31 229.67,539.49 229.26,540.71 ZM 459.29 122.11 C457.68,123.72 440.64,123.91 439.17,122.33 C438.16,121.25 438.29,121.00 439.88,121.00 C440.95,121.00 442.01,120.46 442.24,119.79 C442.87,117.88 458.97,117.77 459.70,119.67 C460.01,120.47 459.82,121.58 459.29,122.11 ZM 568.20 138.88 C566.13,138.73 563.93,138.93 563.29,139.32 C562.66,139.71 561.84,139.55 561.47,138.95 C561.45,138.92 561.43,138.89 561.41,138.85 C561.19,138.50 561.03,138.25 561.05,138.01 C561.09,137.43 562.14,136.92 565.69,135.13 C570.28,132.82 572.53,133.10 573.31,136.07 C573.96,138.57 572.80,139.21 568.20,138.88 ZM 226.54 522.93 C225.59,524.47 221.04,524.75 219.86,523.34 C219.23,522.57 218.98,521.68 219.31,521.36 C220.21,520.46 227.14,521.97 226.54,522.93 ZM 237.12 527.20 C236.09,529.99 234.87,530.34 233.11,528.35 C231.93,527.02 231.93,526.66 233.11,525.91 C233.88,525.43 235.27,525.02 236.22,525.02 C237.57,525.00 237.76,525.47 237.12,527.20 ZM 251.77 480.00 C252.89,481.80 252.77,482.00 250.57,482.00 C247.93,482.00 246.50,480.61 247.50,479.00 C248.49,477.39 250.42,477.84 251.77,480.00 ZM 534.41 107.40 C531.92,108.35 531.00,108.11 531.00,106.50 C531.00,105.68 531.87,105.00 532.94,105.00 C535.46,105.00 536.45,106.61 534.41,107.40 ZM 557.40 63.84 C558.20,65.13 562.33,64.51 562.83,63.02 C563.15,62.06 562.61,61.87 560.88,62.33 C559.57,62.69 558.14,62.98 557.69,62.99 C557.25,62.99 557.11,63.38 557.40,63.84 ZM 244.77 480.19 C244.15,482.05 242.42,482.21 241.03,480.53 C239.94,479.22 240.14,479.00 242.46,479.00 C244.11,479.00 245.01,479.47 244.77,480.19 ZM 562.54 149.93 C561.71,151.28 560.31,151.30 559.50,149.99 C559.15,149.44 559.60,148.71 560.48,148.37 C562.39,147.63 563.46,148.44 562.54,149.93 ZM 541.00 107.50 C540.32,108.32 539.36,109.00 538.88,109.00 C538.39,109.00 538.00,108.32 538.00,107.50 C538.00,106.64 538.90,106.00 540.12,106.00 C541.90,106.00 542.04,106.25 541.00,107.50 ZM 312.00 440.94 C312.00,442.20 310.44,443.11 309.64,442.31 C308.51,441.18 308.95,440.00 310.50,440.00 C311.33,440.00 312.00,440.42 312.00,440.94 ZM 357.73 492.83 C358.47,493.29 358.57,494.08 358.00,495.00 C357.25,496.21 357.00,496.16 356.43,494.68 C355.62,492.57 356.13,491.84 357.73,492.83 ZM 302.82 523.62 C302.99,523.72 302.74,524.04 302.27,524.34 C301.79,524.63 300.79,523.89 300.04,522.69 C298.75,520.62 298.78,520.58 300.59,521.97 C301.64,522.77 302.64,523.52 302.82,523.62 ZM 248.00 520.00 C248.00,520.55 247.30,521.00 246.44,521.00 C245.58,521.00 245.16,520.55 245.50,520.00 C245.84,519.45 246.54,519.00 247.06,519.00 C247.58,519.00 248.00,519.45 248.00,520.00 ZM 205.00 511.00 C205.00,511.55 204.55,512.00 204.00,512.00 C203.45,512.00 203.00,511.55 203.00,511.00 C203.00,510.45 203.45,510.00 204.00,510.00 C204.55,510.00 205.00,510.45 205.00,511.00 ZM 304.00 521.00 C304.00,521.55 303.55,522.00 303.00,522.00 C302.45,522.00 302.00,521.55 302.00,521.00 C302.00,520.45 302.45,520.00 303.00,520.00 C303.55,520.00 304.00,520.45 304.00,521.00 ZM 316.00 442.00 C316.00,442.55 315.55,443.00 315.00,443.00 C314.45,443.00 314.00,442.55 314.00,442.00 C314.00,441.45 314.45,441.00 315.00,441.00 C315.55,441.00 316.00,441.45 316.00,442.00 Z" fill="rgb(0,0,0)"/>
<path d="M 229.26 540.71 C229.67,539.49 230.73,539.31 242.00,538.45 C246.68,538.10 250.74,537.66 251.04,537.47 C251.34,537.29 255.16,536.85 259.54,536.50 C263.92,536.15 268.40,535.60 269.50,535.27 C271.54,534.65 272.86,534.54 281.36,534.19 C285.53,534.03 286.12,533.75 285.55,532.25 C285.01,530.85 285.13,530.75 286.14,531.75 C287.90,533.49 293.00,533.37 293.00,531.58 C293.00,529.61 294.93,529.16 298.84,530.23 C301.44,530.94 302.57,530.79 303.95,529.55 C305.87,527.81 311.14,527.27 314.80,528.43 C316.15,528.86 317.67,528.69 318.50,528.00 C319.27,527.36 320.79,527.12 321.87,527.46 C323.99,528.13 325.29,527.00 324.18,525.45 C323.38,524.33 321.35,523.69 318.25,523.58 C317.01,523.54 316.00,522.89 316.00,522.14 C316.00,521.33 316.62,521.02 317.55,521.38 C318.41,521.71 318.85,521.56 318.53,521.05 C318.22,520.54 316.96,520.11 315.73,520.08 C310.05,519.97 307.57,520.10 307.14,520.53 C306.88,520.79 308.65,521.02 311.08,521.04 L 315.50 521.09 L 311.89 523.00 C308.08,525.01 301.69,525.75 298.75,524.52 C297.70,524.08 297.00,524.23 297.00,524.89 C297.00,526.56 293.02,526.22 292.36,524.50 C291.57,522.42 289.32,522.63 286.77,525.00 C285.30,526.37 283.24,527.00 280.25,527.00 C277.59,527.00 276.12,527.39 276.50,528.00 C277.20,529.12 274.72,529.38 273.63,528.30 C273.25,527.92 270.86,527.73 268.33,527.88 C264.13,528.14 263.77,527.99 264.26,526.13 C264.76,524.20 264.67,524.17 262.39,525.66 C261.08,526.52 260.00,526.94 260.00,526.59 C260.00,526.24 258.99,526.61 257.75,527.41 C255.67,528.76 245.45,530.85 235.75,531.92 C235.34,531.96 235.00,532.67 235.00,533.50 C235.00,535.27 234.52,535.35 231.93,533.96 C230.57,533.24 230.00,531.87 230.00,529.35 C230.00,526.26 229.73,525.84 228.00,526.29 C226.90,526.58 226.00,526.36 226.00,525.81 C226.00,525.25 224.39,525.75 222.42,526.91 C218.73,529.09 217.00,528.94 217.00,526.44 C217.00,525.05 214.37,524.48 209.25,524.76 C208.01,524.82 207.00,524.45 207.00,523.94 C207.00,523.42 208.24,522.99 209.75,522.98 C211.77,522.97 212.12,522.73 211.08,522.07 C209.68,521.18 202.21,521.46 196.67,522.61 C194.67,523.02 193.28,522.65 191.96,521.35 C188.38,517.81 187.00,516.88 187.00,518.02 C187.00,518.62 186.55,518.84 186.00,518.50 C185.45,518.16 185.00,518.36 185.00,518.94 C185.00,520.68 182.19,520.15 178.23,517.65 C176.18,516.35 173.49,514.97 172.25,514.58 C169.16,513.60 169.39,511.81 172.51,512.59 C173.92,512.95 175.65,512.70 176.45,512.04 C177.55,511.12 178.43,511.24 180.44,512.55 C182.20,513.70 183.40,513.92 184.26,513.25 C186.11,511.78 197.82,510.97 198.26,512.28 C198.46,512.87 199.37,513.07 200.29,512.72 C201.22,512.36 201.72,511.44 201.42,510.65 C201.03,509.63 201.86,509.12 204.37,508.83 C206.29,508.60 207.67,508.72 207.44,509.10 C206.53,510.56 210.10,512.15 213.73,511.88 C215.83,511.73 218.11,511.95 218.78,512.36 C220.27,513.28 222.26,512.22 221.46,510.93 C221.14,510.42 220.01,510.00 218.94,510.00 C217.87,510.00 217.00,509.52 217.00,508.94 C217.00,508.36 216.59,508.14 216.09,508.45 C215.58,508.76 215.02,508.63 214.84,508.16 C214.37,506.98 206.00,505.97 206.00,507.10 C206.00,507.59 205.55,508.00 205.00,508.00 C204.45,508.00 203.99,507.21 203.98,506.25 C203.97,504.98 203.75,504.85 203.16,505.77 C202.52,506.78 201.49,506.73 198.05,505.52 C195.69,504.68 192.77,504.00 191.57,504.00 C190.36,504.00 188.51,503.36 187.44,502.57 C185.92,501.45 185.76,500.87 186.71,499.91 C187.64,498.96 188.24,498.95 189.35,499.87 C190.37,500.72 191.45,500.77 193.14,500.04 C197.06,498.34 207.17,497.11 206.68,498.39 C206.39,499.16 209.74,499.50 217.67,499.50 C226.19,499.50 229.29,499.84 229.91,500.86 C230.60,501.98 231.40,501.90 234.50,500.43 C237.43,499.04 238.84,498.88 240.99,499.69 C242.67,500.32 244.36,500.38 245.34,499.83 C246.23,499.33 253.92,499.11 262.43,499.34 C270.95,499.56 279.66,499.43 281.79,499.04 C283.92,498.65 286.64,498.69 287.83,499.13 C289.02,499.57 290.01,499.61 290.02,499.22 C290.02,498.82 290.46,497.83 290.98,497.00 C291.79,495.71 292.10,495.75 293.25,497.32 C294.64,499.23 303.00,500.96 303.00,499.33 C303.00,498.82 304.58,498.59 306.50,498.81 C308.64,499.06 310.00,498.79 310.00,498.11 C310.00,497.44 312.00,497.00 315.00,497.00 C317.75,497.00 320.00,496.63 320.00,496.18 C320.00,495.73 322.59,495.65 325.75,496.00 C328.91,496.35 333.75,496.55 336.50,496.45 C348.98,495.98 352.34,495.70 350.31,495.30 C349.01,495.05 348.32,494.34 348.61,493.57 C348.90,492.83 348.22,492.03 347.06,491.73 C345.60,491.34 345.00,491.67 344.98,492.84 C344.97,494.28 344.84,494.30 343.98,493.00 C343.17,491.75 342.85,491.73 342.12,492.86 C341.38,494.01 341.17,494.01 340.79,492.86 C340.45,491.84 337.73,491.46 329.98,491.35 C324.28,491.27 318.69,491.55 317.56,491.97 C316.37,492.41 313.43,492.12 310.62,491.29 C307.72,490.43 304.68,490.15 303.12,490.59 C301.68,490.99 300.05,491.19 299.50,491.02 C297.98,490.55 285.99,489.83 281.73,489.95 C279.65,490.00 275.60,489.44 272.73,488.69 C269.85,487.94 265.14,487.36 262.25,487.41 C259.36,487.46 256.99,487.05 256.98,486.50 C256.98,485.95 256.60,486.08 256.15,486.79 C255.37,488.03 248.93,487.73 245.00,486.28 C242.53,485.36 239.95,485.28 239.44,486.09 C239.19,486.51 237.66,486.48 236.06,486.02 C234.46,485.56 232.90,485.43 232.60,485.73 C232.30,486.04 231.36,485.72 230.52,485.02 C229.69,484.32 229.00,484.09 229.00,484.50 C229.00,484.91 228.32,484.68 227.50,484.00 C225.01,481.93 225.77,481.12 230.52,480.80 C233.00,480.64 234.91,480.10 234.77,479.60 C234.42,478.42 229.32,477.75 219.75,477.61 C213.08,477.52 212.00,477.26 212.00,475.75 C212.00,473.89 214.47,473.34 215.49,474.98 C215.85,475.57 216.77,475.61 217.80,475.08 C221.97,472.91 228.08,471.96 235.25,472.35 C242.57,472.75 244.60,472.12 241.75,470.33 C241.06,469.90 239.71,469.68 238.75,469.84 C237.79,470.00 237.00,469.76 237.00,469.31 C237.00,468.87 235.10,468.37 232.78,468.21 C230.46,468.05 228.31,467.51 228.00,467.01 C227.69,466.50 226.55,466.08 225.47,466.08 C224.39,466.07 222.04,465.77 220.25,465.42 C217.66,464.90 217.00,465.10 217.00,466.39 C217.00,467.27 216.51,468.00 215.92,468.00 C215.32,468.00 215.02,467.45 215.24,466.77 C215.79,465.12 212.32,463.43 206.63,462.57 C204.06,462.19 202.22,461.45 202.54,460.94 C202.86,460.42 202.14,460.00 200.94,460.00 C198.91,460.00 198.99,459.74 202.13,456.08 C203.99,453.93 206.01,452.13 206.63,452.08 C207.25,452.04 208.32,451.33 209.00,450.50 C210.32,448.90 214.00,448.42 214.00,449.85 C214.00,450.31 213.00,451.14 211.77,451.69 L 209.54 452.68 L 211.75 453.87 C213.51,454.81 213.85,454.79 213.45,453.74 C213.07,452.75 214.33,452.49 218.73,452.66 C225.25,452.90 228.30,452.30 227.45,450.92 C226.34,449.12 230.25,448.72 233.02,450.35 C234.55,451.26 236.30,452.00 236.90,452.00 C238.67,452.00 238.16,450.19 236.25,449.69 C235.29,449.44 237.65,449.11 241.50,448.95 C245.35,448.80 250.30,448.57 252.49,448.43 C254.69,448.30 257.28,448.61 258.24,449.13 C259.21,449.65 260.00,449.72 260.00,449.29 C260.00,448.48 268.87,448.34 343.12,447.98 C367.11,447.87 387.30,447.43 387.97,447.02 C389.82,445.88 382.15,445.05 368.18,444.87 C359.32,444.75 355.47,444.33 354.50,443.35 C352.79,441.65 352.00,441.64 352.00,443.32 C352.00,444.39 346.08,444.62 320.87,444.50 C292.29,444.37 289.63,444.21 288.43,442.58 C287.27,440.99 285.39,440.81 271.00,440.92 C262.12,440.98 255.07,440.69 255.33,440.27 C255.59,439.85 253.48,439.39 250.65,439.26 C247.82,439.13 241.68,438.72 237.00,438.35 C232.32,437.97 226.59,437.64 224.25,437.61 C218.31,437.53 218.94,436.36 225.25,435.74 C228.14,435.46 279.48,435.17 339.34,435.10 C344.82,435.09 350.03,435.09 354.98,435.08 C441.24,434.98 449.45,434.97 456.55,432.16 C457.70,431.70 458.82,431.17 460.25,430.55 C462.85,429.42 462.53,431.45 457.91,445.27 C450.33,467.96 437.11,489.90 417.29,512.70 C405.40,526.38 389.82,542.00 388.06,542.00 C387.48,542.00 387.00,541.30 387.00,540.44 C387.00,539.58 386.54,539.16 385.98,539.51 C385.42,539.86 385.24,540.58 385.57,541.11 C385.96,541.74 358.31,542.03 307.54,541.92 C253.65,541.81 229.02,541.43 229.26,540.71 ZM 459.29 122.11 C459.82,121.58 460.01,120.47 459.70,119.67 C458.97,117.77 442.87,117.88 442.24,119.79 C442.01,120.46 440.95,121.00 439.88,121.00 C438.29,121.00 438.16,121.25 439.17,122.33 C439.57,122.77 441.15,123.07 443.26,123.24 C440.56,123.19 437.60,123.14 434.36,123.08 C429.07,123.00 427.42,121.68 428.64,118.50 C429.07,117.37 430.16,117.16 433.19,117.65 C439.95,118.73 446.00,117.90 446.00,115.88 C446.00,115.40 446.45,115.00 447.00,115.00 C447.55,115.00 448.00,115.63 448.00,116.39 C448.00,117.45 449.84,117.80 455.75,117.87 C460.01,117.92 464.40,117.99 465.50,118.02 C466.98,118.07 469.21,118.03 471.71,117.94 C471.39,117.99 471.10,118.06 470.83,118.12 C468.81,118.62 466.93,119.59 466.65,120.27 C466.28,121.18 465.87,121.11 465.08,120.00 C464.16,118.72 463.87,118.71 463.09,119.91 C461.81,121.90 462.12,123.03 465.40,123.89 C462.25,123.70 457.60,123.54 450.64,123.39 C454.76,123.27 458.57,122.83 459.29,122.11 ZM 556.48 78.61 C556.77,79.00 557.01,79.30 557.25,79.52 C555.62,79.28 554.02,78.50 553.60,77.41 C552.84,75.43 550.62,75.66 548.56,77.93 C546.74,79.95 544.00,79.70 544.00,77.53 C544.00,75.83 534.61,75.20 508.00,75.14 C477.33,75.07 452.03,74.91 432.81,74.66 C450.33,74.61 478.13,74.67 499.50,74.83 C524.25,75.01 546.75,75.12 549.50,75.07 C552.24,75.02 554.62,75.37 554.78,75.85 C554.94,76.32 555.70,77.57 556.48,78.61 ZM 593.18 139.02 C589.60,138.69 585.23,138.71 584.25,139.33 C583.56,139.76 582.47,139.79 581.83,139.39 C581.10,138.94 576.65,138.72 572.27,138.73 C573.45,138.36 573.69,137.53 573.31,136.07 C572.94,134.67 572.25,133.87 571.15,133.65 C572.12,133.51 573.01,133.44 573.75,133.49 C576.09,133.62 578.00,133.46 578.00,133.12 C578.00,132.78 579.01,132.43 580.25,132.35 C583.46,132.14 589.19,131.17 592.45,130.37 C590.76,130.99 588.32,131.70 584.82,132.64 C581.15,133.62 578.37,134.79 578.64,135.23 C578.92,135.67 579.53,135.79 580.01,135.50 C580.49,135.20 581.27,135.66 581.75,136.52 C582.37,137.62 584.83,138.27 590.06,138.69 C591.15,138.78 592.21,138.90 593.18,139.02 ZM 481.33 117.39 C484.81,117.12 487.58,116.81 488.15,116.57 C489.06,116.18 490.08,116.32 490.42,116.87 C490.82,117.52 492.34,117.34 494.69,116.36 C497.49,115.18 498.81,115.09 500.42,115.96 C501.47,116.52 502.73,116.68 504.87,116.40 C502.41,116.80 499.96,117.10 498.42,117.16 C495.78,117.26 494.44,117.65 495.18,118.11 C496.15,118.71 496.08,119.03 494.87,119.50 C492.92,120.24 490.73,119.82 489.79,118.51 C489.32,117.84 485.53,117.45 481.33,117.39 ZM 584.16 126.36 C581.08,126.17 577.63,126.43 576.09,127.24 C574.16,128.24 573.59,128.25 573.25,127.25 C572.80,125.90 563.60,125.63 557.50,126.35 C559.59,126.00 562.08,125.68 564.50,125.49 C569.45,125.10 573.85,124.27 574.27,123.64 C574.81,122.84 575.43,123.01 576.37,124.23 C577.28,125.43 579.47,126.07 583.43,126.31 C583.68,126.32 583.92,126.34 584.16,126.36 ZM 465.58 150.40 C465.86,150.18 466.00,149.88 466.00,149.50 C466.00,148.68 465.25,148.00 464.33,148.00 C460.83,148.00 463.95,146.93 468.86,146.45 C472.04,146.14 474.00,146.34 474.00,146.97 C474.00,147.54 472.76,148.05 471.25,148.12 C469.54,148.19 469.16,148.41 470.26,148.69 C471.23,148.94 471.79,149.53 471.51,149.99 C471.36,150.23 471.59,150.49 472.09,150.75 C471.58,150.57 471.07,150.38 470.56,150.18 C467.65,149.04 466.52,148.94 466.23,149.82 C466.16,150.03 465.92,150.23 465.58,150.40 ZM 534.41 107.40 C535.77,106.88 535.78,105.99 534.90,105.45 C538.62,105.37 540.60,105.54 541.24,106.08 C540.99,106.02 540.62,106.00 540.12,106.00 C538.90,106.00 538.00,106.64 538.00,107.50 C538.00,107.88 538.09,108.24 538.23,108.50 C534.69,109.09 529.09,108.96 528.44,107.90 C527.61,106.55 528.30,105.91 531.37,105.63 C531.14,105.87 531.00,106.17 531.00,106.50 C531.00,108.11 531.92,108.35 534.41,107.40 ZM 549.62 94.54 C552.31,93.99 555.72,93.30 560.00,92.44 C564.67,91.49 569.17,90.49 570.00,90.22 C570.55,90.03 571.59,89.81 572.68,89.64 C569.67,90.36 567.16,92.26 567.71,93.68 C568.00,94.44 567.52,95.00 566.58,95.00 C565.67,95.00 564.71,94.42 564.44,93.70 C563.94,92.39 559.58,92.63 549.62,94.54 ZM 590.00 148.86 C590.00,148.84 590.00,148.82 590.00,148.79 C590.00,147.60 594.25,143.00 595.35,143.00 C595.54,143.00 596.71,143.88 597.95,144.95 C598.65,145.56 599.13,145.98 599.58,146.19 C599.08,146.09 598.13,146.48 597.39,147.09 C596.33,147.97 595.62,147.93 594.39,146.90 C593.00,145.76 592.50,145.89 590.91,147.87 C590.58,148.27 590.29,148.60 590.00,148.86 ZM 427.62 149.67 C427.09,150.37 422.29,150.96 421.72,150.39 C420.29,148.95 421.05,148.00 423.64,148.00 C425.09,148.00 426.91,147.21 427.69,146.25 C428.98,144.66 429.04,144.72 428.43,147.00 C428.06,148.38 427.69,149.58 427.62,149.67 ZM 226.54 522.93 C227.14,521.97 220.21,520.46 219.31,521.36 C218.98,521.68 219.23,522.57 219.86,523.34 C221.04,524.75 225.59,524.47 226.54,522.93 ZM 237.12 527.20 C237.76,525.47 237.57,525.00 236.22,525.02 C235.27,525.02 233.88,525.43 233.11,525.91 C231.93,526.66 231.93,527.02 233.11,528.35 C234.87,530.34 236.09,529.99 237.12,527.20 ZM 251.77 480.00 C250.42,477.84 248.49,477.39 247.50,479.00 C246.50,480.61 247.93,482.00 250.57,482.00 C252.77,482.00 252.89,481.80 251.77,480.00 ZM 426.55 121.91 C425.85,123.04 423.45,123.22 421.18,122.31 C420.31,121.97 420.80,121.30 422.60,120.36 C425.43,118.90 427.84,119.84 426.55,121.91 ZM 389.58 168.78 C394.67,168.58 395.63,168.20 395.36,167.50 C394.62,165.57 396.70,165.56 398.64,167.49 C399.29,168.15 401.50,168.51 409.65,168.67 C402.50,168.70 395.81,168.74 389.58,168.78 ZM 395.92 73.80 C392.07,73.61 389.99,73.39 389.76,73.16 C388.88,72.28 392.45,71.97 404.55,71.87 C418.56,71.76 422.93,71.67 425.55,71.19 C423.06,71.65 419.15,71.76 407.78,71.87 C397.12,71.98 395.15,72.23 395.62,73.45 C395.67,73.58 395.76,73.69 395.92,73.80 ZM 480.66 70.82 C480.86,70.82 481.05,70.82 481.25,70.83 C487.24,70.89 489.00,70.59 489.00,69.52 C489.00,68.39 490.08,67.98 497.55,67.90 C495.16,68.11 494.02,68.53 492.97,69.23 C491.04,70.54 488.43,70.92 481.97,70.84 C481.53,70.84 481.09,70.83 480.66,70.82 ZM 244.77 480.19 C245.01,479.47 244.11,479.00 242.46,479.00 C240.14,479.00 239.94,479.22 241.03,480.53 C242.42,482.21 244.15,482.05 244.77,480.19 ZM 441.58 151.12 C441.87,151.61 440.99,152.00 439.62,152.00 C438.24,152.00 436.87,151.61 436.58,151.12 C436.28,150.64 437.16,150.25 438.54,150.25 C439.91,150.25 441.28,150.64 441.58,151.12 ZM 546.77 112.24 C549.40,112.05 551.45,111.50 553.50,110.49 L 556.41 109.05 C556.44,109.35 556.18,109.76 555.74,110.35 C554.66,111.83 553.13,112.18 546.77,112.24 ZM 312.00 440.94 C312.00,440.42 311.33,440.00 310.50,440.00 C308.95,440.00 308.51,441.18 309.64,442.31 C310.44,443.11 312.00,442.20 312.00,440.94 ZM 357.73 492.83 C356.13,491.84 355.62,492.57 356.43,494.68 C357.00,496.16 357.25,496.21 358.00,495.00 C358.57,494.08 358.47,493.29 357.73,492.83 ZM 291.92 181.34 C302.89,176.06 311.12,172.98 321.54,171.21 C311.62,173.31 301.52,176.81 291.92,181.34 ZM 450.00 151.00 C451.21,151.78 451.07,151.97 449.25,151.98 C448.01,151.99 447.00,151.55 447.00,151.00 C447.00,149.75 448.06,149.75 450.00,151.00 ZM 302.82 523.62 C302.64,523.52 301.64,522.77 300.59,521.97 C298.78,520.58 298.75,520.62 300.04,522.69 C300.79,523.89 301.79,524.63 302.27,524.34 C302.74,524.04 302.99,523.72 302.82,523.62 ZM 248.00 520.00 C248.00,519.45 247.58,519.00 247.06,519.00 C246.54,519.00 245.84,519.45 245.50,520.00 C245.16,520.55 245.58,521.00 246.44,521.00 C247.30,521.00 248.00,520.55 248.00,520.00 ZM 536.50 146.00 C536.84,146.55 536.42,147.00 535.56,147.00 C534.70,147.00 534.00,146.55 534.00,146.00 C534.00,145.45 534.42,145.00 534.94,145.00 C535.46,145.00 536.16,145.45 536.50,146.00 ZM 241.51 223.86 C232.36,238.15 225.67,255.34 221.98,274.25 C225.79,254.72 232.24,238.01 241.51,223.86 ZM 205.00 511.00 C205.00,510.45 204.55,510.00 204.00,510.00 C203.45,510.00 203.00,510.45 203.00,511.00 C203.00,511.55 203.45,512.00 204.00,512.00 C204.55,512.00 205.00,511.55 205.00,511.00 ZM 520.00 106.00 C520.00,106.55 519.55,107.00 519.00,107.00 C518.45,107.00 518.00,106.55 518.00,106.00 C518.00,105.45 518.45,105.00 519.00,105.00 C519.55,105.00 520.00,105.45 520.00,106.00 ZM 304.00 521.00 C304.00,520.45 303.55,520.00 303.00,520.00 C302.45,520.00 302.00,520.45 302.00,521.00 C302.00,521.55 302.45,522.00 303.00,522.00 C303.55,522.00 304.00,521.55 304.00,521.00 ZM 316.00 442.00 C316.00,441.45 315.55,441.00 315.00,441.00 C314.45,441.00 314.00,441.45 314.00,442.00 C314.00,442.55 314.45,443.00 315.00,443.00 C315.55,443.00 316.00,442.55 316.00,442.00 ZM 478.69 125.97 C477.95,125.80 477.05,125.75 476.30,125.85 C475.13,126.00 473.21,125.61 471.97,124.98 C473.07,125.11 474.27,125.24 475.60,125.38 C476.66,125.49 477.81,125.71 478.69,125.97 ZM 339.25 169.46 C346.33,169.11 354.63,169.00 364.80,169.00 L 365.10 169.00 C354.08,169.13 345.46,169.28 339.25,169.46 ZM 536.41 113.15 C536.12,113.62 534.81,113.74 533.50,113.41 C534.81,113.74 536.14,113.58 536.46,113.07 C536.77,112.56 539.78,112.21 543.16,112.30 C539.49,112.42 536.65,112.76 536.41,113.15 ZM 565.77 135.09 L 565.69 135.13 C562.14,136.92 561.09,137.43 561.05,138.01 C561.03,138.25 561.19,138.50 561.41,138.85 L 561.44 138.90 C560.99,138.46 560.76,137.90 561.15,137.56 C562.13,136.69 563.84,135.81 565.77,135.09 ZM 475.93 151.89 C478.65,152.42 481.79,152.66 482.76,152.11 C482.93,152.02 483.12,151.94 483.30,151.88 C483.16,151.93 483.03,152.00 482.91,152.08 C481.81,152.77 479.17,152.66 475.93,151.89 ZM 605.40 143.53 C606.65,142.59 607.60,141.69 607.75,141.26 C608.21,139.88 605.81,139.13 603.22,139.55 C605.67,139.15 608.00,139.79 608.00,141.10 C608.00,141.56 606.85,142.55 605.40,143.53 ZM 540.13 97.42 C540.11,97.37 540.10,97.32 540.10,97.27 C540.12,96.84 541.02,96.46 543.96,95.77 C541.71,96.37 540.44,96.93 540.13,97.42 ZM 562.81 139.51 C562.97,139.48 563.14,139.42 563.29,139.32 C563.85,138.98 565.61,138.78 567.42,138.84 C565.25,138.95 563.60,139.13 563.18,139.39 C563.06,139.46 562.94,139.50 562.81,139.51 ZM 583.87 149.02 C584.64,149.16 585.47,149.31 586.25,149.47 C586.79,149.58 587.26,149.66 587.66,149.72 C587.14,149.70 586.53,149.60 585.77,149.42 C585.16,149.28 584.50,149.15 583.87,149.02 ZM 274.13 191.31 C277.82,188.87 281.71,186.57 285.79,184.41 C281.77,186.55 277.86,188.86 274.13,191.31 ZM 560.83 78.74 C560.75,78.80 560.67,78.86 560.59,78.92 C560.34,79.13 560.02,79.29 559.67,79.40 C559.78,79.34 559.90,79.27 560.02,79.19 C560.32,79.01 560.58,78.86 560.83,78.74 ZM 595.84 128.30 C596.08,127.57 595.98,126.80 595.54,126.36 C595.83,126.61 596.00,126.99 596.00,127.52 C596.00,127.80 595.95,128.05 595.84,128.30 ZM 551.88 99.41 C557.16,99.48 562.36,100.05 563.43,100.66 C562.36,100.05 557.08,99.48 551.69,99.41 C551.20,99.40 550.72,99.39 550.25,99.38 C550.78,99.39 551.32,99.40 551.88,99.41 ZM 551.00 128.20 C550.03,128.47 549.39,128.24 548.41,127.51 C549.35,128.21 550.02,128.43 551.00,128.20 ZM 516.42 167.95 C517.06,167.93 517.54,167.91 517.84,167.89 C521.00,167.68 523.76,167.70 524.38,167.92 C523.76,167.70 521.00,167.69 517.84,167.90 C517.58,167.91 517.10,167.93 516.42,167.95 ZM 484.87 126.46 C486.69,126.02 488.35,125.26 488.66,124.44 C488.34,125.28 486.69,126.03 484.87,126.46 ZM 598.61 140.48 C599.24,140.61 600.32,140.45 601.47,140.01 C600.24,140.48 599.22,140.64 598.61,140.48 ZM 593.68 126.24 C593.07,126.52 592.41,127.00 591.96,127.55 C592.49,126.91 593.10,126.47 593.68,126.24 Z" fill="rgb(96,96,96)"/>
<path d="M 465.58 150.40 C464.87,150.76 463.68,151.00 462.42,151.00 C460.54,151.00 459.00,151.45 459.00,152.00 C459.00,152.55 458.89,153.32 458.75,153.70 C458.65,153.98 459.33,154.26 460.45,154.48 C458.98,154.25 457.67,153.91 457.22,153.63 C456.62,153.27 455.81,153.50 455.40,154.15 C454.21,156.10 452.94,151.30 453.98,148.75 C454.88,146.53 454.91,146.53 455.52,148.57 C456.00,150.17 456.77,150.54 458.98,150.22 C460.63,149.97 462.02,149.05 462.29,148.01 C462.62,146.72 464.17,146.03 467.81,145.53 C471.86,144.97 472.75,144.51 472.27,143.25 C471.87,142.21 472.06,141.92 472.83,142.39 C473.47,142.79 474.00,143.77 474.00,144.56 C474.00,145.44 475.00,146.00 476.56,146.00 C477.97,146.00 478.87,145.60 478.56,145.10 C477.73,143.76 481.17,142.77 482.41,144.01 C483.17,144.77 483.05,145.35 481.99,146.03 C480.68,146.86 480.68,146.97 482.03,146.98 C482.87,146.99 484.07,148.35 484.69,150.00 C485.09,151.04 485.59,151.81 486.13,152.30 C485.16,151.72 484.12,151.57 483.30,151.88 C483.12,151.94 482.93,152.02 482.76,152.11 C481.79,152.66 478.65,152.42 475.93,151.89 C474.72,151.60 473.42,151.22 472.09,150.75 C471.59,150.49 471.36,150.23 471.51,149.99 C471.79,149.53 471.23,148.94 470.26,148.69 C469.16,148.41 469.54,148.19 471.25,148.12 C472.76,148.05 474.00,147.54 474.00,146.97 C474.00,146.34 472.04,146.14 468.86,146.45 C463.95,146.93 460.83,148.00 464.33,148.00 C465.25,148.00 466.00,148.68 466.00,149.50 C466.00,149.88 465.86,150.18 465.58,150.40 ZM 525.34 168.26 C527.14,167.88 530.66,165.33 529.94,164.61 C529.65,164.31 527.44,163.83 525.04,163.53 C524.86,163.50 524.68,163.48 524.50,163.46 C532.90,163.78 545.05,165.12 552.75,166.60 C553.99,166.84 555.00,167.52 555.00,168.11 C555.00,169.10 530.29,169.09 525.34,168.26 ZM 568.11 103.64 C568.25,103.80 568.38,103.95 568.50,104.07 C567.03,104.41 564.73,104.60 561.50,104.67 C558.44,104.74 555.99,104.81 554.04,104.90 C554.23,104.86 554.40,104.81 554.58,104.77 C558.23,103.79 559.03,103.18 558.79,101.53 C558.53,99.68 557.78,99.50 550.29,99.49 C545.58,99.48 542.13,99.08 541.07,98.43 C542.55,98.92 545.63,99.26 550.25,99.38 C550.72,99.39 551.20,99.40 551.69,99.41 C557.07,99.48 562.35,100.04 563.43,100.66 L 563.43 100.66 L 563.43 100.66 C564.86,101.49 565.84,101.49 567.16,100.67 C569.38,99.28 571.68,101.07 570.35,103.15 C570.35,103.16 570.35,103.16 570.34,103.17 C570.41,102.64 570.20,102.12 569.74,101.84 C567.94,100.73 566.77,102.02 568.11,103.64 ZM 481.33 117.39 C477.86,117.33 474.12,117.51 471.71,117.94 C469.21,118.03 466.98,118.07 465.50,118.02 C464.40,117.99 460.01,117.92 455.75,117.87 C451.61,117.82 449.47,117.64 448.56,117.16 C449.52,117.63 451.90,117.73 456.87,117.65 C463.51,117.54 465.62,117.19 465.26,116.25 C465.00,115.56 465.28,115.00 465.89,115.00 C466.50,115.00 467.00,115.68 467.00,116.50 C467.00,117.40 467.91,117.99 469.25,117.98 C473.05,117.94 479.44,116.17 479.82,115.05 C480.32,113.55 483.00,113.75 483.00,115.28 C483.00,116.88 486.59,116.72 490.32,114.95 C492.63,113.86 493.29,113.85 493.95,114.91 C494.45,115.73 495.56,115.96 496.92,115.52 C498.14,115.14 499.70,115.34 500.50,116.00 C500.47,115.99 500.45,115.97 500.42,115.96 C498.81,115.09 497.49,115.18 494.69,116.36 C492.34,117.34 490.82,117.52 490.42,116.87 C490.08,116.32 489.06,116.18 488.15,116.57 C487.58,116.81 484.81,117.12 481.33,117.39 ZM 444.75 150.33 C441.67,153.39 438.92,154.19 434.75,153.25 C432.64,152.77 432.51,151.65 434.40,150.08 C435.61,149.07 437.07,149.06 441.50,150.02 C443.80,150.52 444.82,149.86 445.41,147.50 C445.76,146.12 446.48,145.00 447.02,145.00 C448.89,145.00 447.99,147.11 444.75,150.33 ZM 559.68 150.25 C559.62,150.19 559.58,150.12 559.53,150.05 C559.17,149.47 557.37,149.18 555.51,149.41 C552.24,149.82 549.85,147.83 552.00,146.50 C552.50,146.19 552.68,145.32 552.39,144.57 C552.10,143.82 552.34,142.91 552.93,142.54 C553.52,142.18 554.01,142.47 554.02,143.19 C554.02,143.91 554.47,145.18 555.02,146.00 C555.89,147.33 556.11,147.33 557.00,146.00 C557.67,144.99 558.25,144.85 558.75,145.57 C559.16,146.16 560.32,146.95 561.33,147.32 C561.97,147.56 562.46,147.97 562.68,148.41 C562.33,148.03 561.53,147.97 560.48,148.37 C559.60,148.71 559.15,149.44 559.50,149.99 C559.55,150.09 559.61,150.17 559.68,150.25 ZM 537.23 147.44 C536.39,148.28 534.69,148.09 533.00,146.98 C532.06,146.37 531.87,145.72 532.50,145.25 C533.05,144.84 533.50,143.82 533.50,143.00 C533.50,140.43 536.32,141.36 537.07,144.19 C537.47,145.66 537.54,147.13 537.23,147.44 ZM 479.73 75.04 C488.57,75.09 498.00,75.12 508.00,75.14 C512.93,75.15 517.26,75.19 521.06,75.24 C513.43,75.33 506.66,75.92 505.93,77.05 C505.21,78.18 504.82,78.22 504.19,77.25 C503.41,76.04 498.07,75.42 479.73,75.04 ZM 521.53 107.96 C520.70,109.29 514.00,109.33 514.00,108.00 C514.00,107.45 514.34,107.05 514.75,107.12 C516.81,107.44 518.00,106.85 518.00,105.50 C518.00,104.68 518.39,104.00 518.88,104.00 C520.32,104.00 522.22,106.83 521.53,107.96 ZM 509.77 161.39 C509.03,161.94 507.94,163.02 506.91,164.25 C504.85,166.69 503.87,167.22 503.00,166.37 C502.11,165.51 502.35,164.86 503.99,163.72 C506.26,162.13 506.18,161.29 502.35,160.77 C503.79,160.88 505.52,161.00 507.00,161.09 C507.95,161.14 508.91,161.25 509.77,161.39 ZM 589.40 131.03 C586.30,131.63 582.60,132.19 580.25,132.35 C579.01,132.43 578.00,132.78 578.00,133.12 C578.00,133.46 576.09,133.62 573.75,133.49 C573.01,133.44 572.12,133.51 571.15,133.65 C571.12,133.65 571.09,133.64 571.06,133.64 C571.93,133.48 572.71,133.40 573.33,133.43 C576.84,133.56 577.12,133.38 576.70,131.21 C576.30,129.09 576.52,128.91 578.87,129.50 C580.32,129.85 581.64,130.54 581.82,131.02 C582.05,131.67 585.93,131.54 589.40,131.03 ZM 590.00 148.86 C589.29,149.51 588.63,149.76 587.66,149.72 C587.26,149.66 586.79,149.58 586.25,149.47 C585.94,149.41 585.62,149.35 585.30,149.29 C588.17,149.70 589.52,148.34 587.82,146.28 C586.76,145.00 587.71,144.54 590.67,144.91 C591.32,144.99 592.13,144.59 592.48,144.03 C593.01,143.17 593.85,142.88 594.90,143.15 C593.39,143.94 590.00,147.72 590.00,148.79 C590.00,148.82 590.00,148.84 590.00,148.86 ZM 416.42 150.39 C414.08,151.29 411.00,151.13 411.00,150.11 C411.00,149.02 413.47,148.00 416.08,148.00 C418.40,148.00 418.62,149.55 416.42,150.39 ZM 478.98 157.37 C478.29,157.27 477.55,157.13 476.81,156.94 C473.36,156.06 471.40,155.71 465.40,155.05 C467.46,155.16 469.56,155.14 471.00,154.92 C474.45,154.38 479.08,155.06 478.50,156.01 C478.16,156.55 478.43,157.04 478.98,157.37 ZM 522.02 163.37 C520.64,163.47 519.69,163.87 518.82,164.66 C517.07,166.25 516.81,166.19 514.18,163.67 C513.53,163.05 512.85,162.47 512.26,162.01 C512.44,162.09 512.59,162.17 512.69,162.24 C513.27,162.69 517.31,163.16 522.02,163.37 ZM 495.48 125.82 C494.96,125.89 494.50,126.00 494.15,126.13 C492.45,126.78 491.45,126.72 490.97,125.96 C490.48,125.16 489.27,125.16 486.45,125.98 C487.57,125.56 488.44,125.02 488.66,124.45 L 488.66 124.44 C489.36,122.61 492.00,122.55 492.00,124.37 C492.00,125.14 493.03,125.58 495.48,125.82 ZM 459.50 163.00 C459.87,163.60 458.68,164.00 456.56,164.00 C454.60,164.00 453.00,163.55 453.00,163.00 C453.00,162.45 454.32,162.00 455.94,162.00 C457.56,162.00 459.16,162.45 459.50,163.00 ZM 391.00 144.59 C391.00,145.23 390.21,146.36 389.25,147.09 C388.29,147.83 387.82,148.05 388.21,147.59 C388.61,147.12 388.49,145.92 387.96,144.93 C387.17,143.46 387.36,143.15 389.00,143.27 C390.10,143.36 391.00,143.95 391.00,144.59 ZM 557.40 63.84 C557.11,63.38 557.25,62.99 557.69,62.99 C558.14,62.98 559.57,62.69 560.88,62.33 C562.61,61.87 563.15,62.06 562.83,63.02 C562.33,64.51 558.20,65.13 557.40,63.84 ZM 550.09 111.74 C550.64,111.57 551.07,111.36 551.36,111.12 C553.70,109.17 553.39,108.18 550.33,107.82 C549.44,107.71 548.57,107.39 547.97,106.97 C548.86,107.40 550.54,107.81 552.38,108.00 C555.25,108.30 556.35,108.48 556.41,109.05 L 553.50 110.49 C552.40,111.03 551.29,111.45 550.09,111.74 ZM 561.00 143.07 C561.00,144.66 559.27,144.92 557.46,143.59 C555.75,142.35 555.81,142.25 558.31,142.25 C559.79,142.25 561.00,142.62 561.00,143.07 ZM 441.58 151.12 C441.28,150.64 439.91,150.25 438.54,150.25 C437.16,150.25 436.28,150.64 436.58,151.12 C436.87,151.61 438.24,152.00 439.62,152.00 C440.99,152.00 441.87,151.61 441.58,151.12 ZM 409.46 146.07 C409.14,146.58 408.49,147.00 408.00,147.00 C406.60,147.00 405.87,145.20 406.98,144.51 C408.32,143.69 410.20,144.87 409.46,146.07 ZM 450.00 151.00 C448.32,149.92 447.30,149.77 447.06,150.56 C447.10,150.06 447.29,149.42 447.60,148.59 C447.94,147.72 448.62,147.26 449.12,147.57 C449.62,147.88 449.77,148.56 449.46,149.07 C449.14,149.58 449.36,150.00 449.94,150.00 C450.52,150.00 451.00,150.45 451.00,151.00 C451.00,151.19 450.89,151.38 450.69,151.53 C450.58,151.39 450.34,151.22 450.00,151.00 ZM 547.00 168.04 C549.92,168.78 550.78,168.38 549.35,166.95 C548.79,166.39 547.47,166.27 546.42,166.67 C544.68,167.34 544.73,167.47 547.00,168.04 ZM 500.00 146.00 C500.00,146.55 499.10,147.00 498.00,147.00 C496.90,147.00 496.00,146.55 496.00,146.00 C496.00,145.45 496.90,145.00 498.00,145.00 C499.10,145.00 500.00,145.45 500.00,146.00 ZM 432.00 151.00 C432.00,152.10 431.55,153.00 431.00,153.00 C430.45,153.00 430.00,152.10 430.00,151.00 C430.00,149.90 430.45,149.00 431.00,149.00 C431.55,149.00 432.00,149.90 432.00,151.00 ZM 400.00 148.67 C400.00,150.09 398.77,150.44 397.67,149.33 C396.55,148.22 396.92,147.33 398.50,147.33 C399.33,147.33 400.00,147.93 400.00,148.67 ZM 418.00 120.11 C418.00,121.16 416.62,121.29 415.67,120.33 C414.45,119.12 414.98,118.05 416.50,118.64 C417.33,118.95 418.00,119.62 418.00,120.11 ZM 551.00 144.00 C551.00,144.55 550.33,145.00 549.50,145.00 C548.67,145.00 548.00,144.55 548.00,144.00 C548.00,143.45 548.67,143.00 549.50,143.00 C550.33,143.00 551.00,143.45 551.00,144.00 ZM 536.50 146.00 C536.16,145.45 535.46,145.00 534.94,145.00 C534.42,145.00 534.00,145.45 534.00,146.00 C534.00,146.55 534.70,147.00 535.56,147.00 C536.42,147.00 536.84,146.55 536.50,146.00 ZM 503.50 128.00 C503.16,128.55 502.46,129.00 501.94,129.00 C501.42,129.00 501.00,128.55 501.00,128.00 C501.00,127.45 501.70,127.00 502.56,127.00 C503.42,127.00 503.84,127.45 503.50,128.00 ZM 520.00 106.00 C520.00,105.45 519.55,105.00 519.00,105.00 C518.45,105.00 518.00,105.45 518.00,106.00 C518.00,106.55 518.45,107.00 519.00,107.00 C519.55,107.00 520.00,106.55 520.00,106.00 ZM 462.00 107.00 C462.00,107.55 461.55,108.00 461.00,108.00 C460.45,108.00 460.00,107.55 460.00,107.00 C460.00,106.45 460.45,106.00 461.00,106.00 C461.55,106.00 462.00,106.45 462.00,107.00 ZM 405.00 149.00 C405.00,149.55 404.55,150.00 404.00,150.00 C403.45,150.00 403.00,149.55 403.00,149.00 C403.00,148.45 403.45,148.00 404.00,148.00 C404.55,148.00 405.00,148.45 405.00,149.00 ZM 463.08 163.73 C463.12,164.12 462.61,164.63 461.95,164.85 C461.29,165.07 460.93,164.71 461.15,164.05 C461.58,162.76 462.95,162.53 463.08,163.73 ZM 513.29 126.14 C512.47,126.20 511.57,126.28 510.50,126.37 C507.96,126.58 504.16,126.46 501.67,126.09 C506.01,126.20 510.27,126.22 513.29,126.14 ZM 496.50 151.94 C498.17,153.04 500.20,153.67 502.30,153.73 C502.24,153.73 502.18,153.73 502.12,153.73 C499.80,153.73 497.51,153.11 496.84,152.31 C496.74,152.19 496.63,152.07 496.50,151.94 ZM 547.28 106.28 C547.24,106.22 547.21,106.16 547.19,106.09 C546.87,105.11 547.24,104.88 548.41,105.33 C548.49,105.36 548.58,105.38 548.69,105.41 C547.65,105.63 547.26,105.91 547.28,106.28 ZM 490.03 150.95 C491.09,148.97 491.85,148.59 493.80,149.90 C493.76,149.87 493.72,149.85 493.68,149.83 C492.10,148.98 491.41,149.17 490.03,150.95 ZM 395.92 73.80 C395.98,73.84 396.04,73.88 396.12,73.92 C392.05,73.72 390.07,73.47 389.76,73.16 C389.99,73.39 392.07,73.61 395.92,73.80 ZM 583.87 149.02 C582.65,148.78 581.53,148.59 580.98,148.54 C580.78,148.52 580.55,148.49 580.31,148.44 C580.84,148.31 582.38,148.53 584.02,149.00 C584.21,149.06 584.40,149.11 584.58,149.15 C584.34,149.11 584.10,149.06 583.87,149.02 ZM 527.45 125.94 C522.64,125.90 519.92,125.88 517.77,125.92 C520.64,125.80 524.17,125.82 527.45,125.94 ZM 478.69 125.97 C478.90,126.03 479.11,126.10 479.28,126.16 C478.32,125.94 477.16,125.83 476.30,125.92 C475.13,126.03 473.21,125.61 471.97,124.98 C473.21,125.61 475.13,126.00 476.30,125.85 C477.05,125.75 477.95,125.80 478.69,125.97 ZM 544.00 77.53 C544.00,76.81 541.51,76.25 537.80,75.86 C542.16,76.23 544.00,76.77 544.00,77.53 ZM 447.21 151.42 C447.56,151.76 448.35,151.99 449.25,151.98 C449.29,151.98 449.32,151.98 449.36,151.98 C449.24,151.99 449.12,152.00 449.00,152.00 C448.05,152.00 447.46,151.84 447.21,151.42 ZM 595.84 128.30 C595.74,128.50 595.59,128.70 595.38,128.89 C595.74,128.42 595.94,127.88 595.96,127.41 C595.98,127.69 595.94,128.00 595.84,128.30 ZM 576.51 147.98 C576.16,148.54 574.83,149.00 573.55,149.00 C574.83,149.00 576.17,148.53 576.53,147.95 C576.83,147.46 577.19,147.30 577.66,147.47 C577.20,147.42 576.75,147.60 576.51,147.98 ZM 494.96 160.23 C494.30,160.20 493.60,160.17 492.87,160.14 C491.10,160.07 490.05,159.83 489.42,159.26 C490.09,159.85 491.25,160.08 493.37,160.16 C493.87,160.18 494.41,160.20 494.96,160.23 ZM 507.58 115.91 C507.94,115.83 508.32,115.75 508.71,115.66 C509.05,115.58 509.42,115.51 509.80,115.43 C509.60,115.48 509.40,115.52 509.22,115.56 C508.70,115.68 508.15,115.79 507.58,115.91 ZM 409.72 168.67 L 409.65 168.67 C406.16,168.60 403.75,168.50 402.10,168.35 C403.76,168.50 406.19,168.60 409.72,168.67 ZM 549.62 94.54 L 549.50 94.57 C552.21,94.01 555.65,93.32 560.00,92.44 C555.72,93.30 552.31,93.99 549.62,94.54 ZM 541.31 96.48 C541.93,96.27 542.82,96.03 544.06,95.74 L 543.96 95.77 C542.77,96.05 541.91,96.28 541.31,96.48 Z" fill="rgb(184,184,184)"/>
<path d="M 411.71 542.37 C411.36,542.03 415.50,536.97 420.90,531.12 C442.03,508.29 453.35,492.45 463.53,471.50 C475.87,446.09 480.29,428.07 480.41,402.50 C480.50,385.97 480.42,385.34 477.76,379.64 C473.14,369.78 465.78,362.77 455.72,358.65 C450.65,356.56 448.83,356.49 390.50,355.92 L 330.50 355.34 L 318.50 352.70 C303.01,349.30 294.90,346.49 282.10,340.06 C265.32,331.63 255.94,324.71 241.62,310.19 L 233.75 302.20 L 234.46 294.35 C238.14,253.99 253.16,224.46 280.00,204.89 C287.27,199.58 310.45,188.11 311.59,189.26 C311.77,189.44 311.04,192.42 309.96,195.88 C304.79,212.48 310.13,229.79 323.69,240.44 C334.26,248.73 330.79,248.34 399.50,249.07 C455.71,249.67 461.25,249.88 470.00,251.77 C489.96,256.06 508.08,263.93 526.00,276.09 C535.12,282.27 555.55,302.99 561.41,312.00 C564.10,316.12 567.08,320.65 568.04,322.06 C574.43,331.45 581.86,351.53 585.15,368.27 C587.98,382.63 588.19,405.61 585.63,420.50 C582.32,439.82 574.33,459.82 563.28,476.50 C555.27,488.57 536.23,508.06 524.50,516.19 C502.73,531.27 478.30,539.94 451.78,542.00 C437.85,543.08 412.65,543.32 411.71,542.37 ZM 214.80 270.25 C209.01,257.71 208.55,256.44 205.58,244.50 C198.85,217.43 199.92,188.48 208.65,161.50 C211.23,153.50 220.38,135.10 225.55,127.50 C237.76,109.54 249.17,98.27 267.20,86.34 C278.72,78.71 288.40,74.09 302.69,69.42 C324.27,62.34 317.42,62.70 441.85,62.28 C533.46,61.98 554.12,62.15 553.77,63.21 C553.26,64.74 542.25,66.10 536.77,65.30 C534.34,64.94 531.80,65.34 529.48,66.44 C526.60,67.81 523.22,68.10 511.71,67.97 C491.24,67.74 489.00,67.90 489.00,69.52 C489.00,70.59 487.24,70.89 481.25,70.83 C476.99,70.78 473.05,70.42 472.50,70.03 C471.36,69.21 467.66,69.34 464.00,70.32 C459.82,71.44 431.06,71.91 430.42,70.87 C430.10,70.35 428.86,70.24 427.67,70.64 C424.70,71.62 422.82,71.72 404.55,71.87 C392.45,71.97 388.88,72.28 389.76,73.16 C390.60,74.00 403.99,74.40 438.21,74.61 C491.11,74.92 502.99,75.40 504.19,77.25 C504.82,78.22 505.21,78.18 505.93,77.05 C507.68,74.33 544.00,74.78 544.00,77.53 C544.00,79.70 546.74,79.95 548.56,77.93 C550.62,75.66 552.84,75.43 553.60,77.41 C554.35,79.36 558.89,80.34 560.59,78.92 C561.67,78.03 562.57,78.15 564.56,79.45 C566.58,80.77 567.44,80.88 568.57,79.94 C569.36,79.29 570.00,78.14 570.00,77.38 C570.00,76.62 570.24,76.00 570.54,76.00 C572.32,76.00 583.00,84.53 583.00,85.95 C583.00,86.85 577.28,89.13 574.27,89.43 C572.74,89.59 570.83,89.94 570.00,90.22 C569.17,90.49 564.67,91.49 560.00,92.44 C538.45,96.79 539.17,96.57 540.87,98.27 C541.62,99.02 545.22,99.48 550.29,99.49 C557.78,99.50 558.53,99.68 558.79,101.53 C559.03,103.18 558.23,103.79 554.58,104.77 C552.11,105.43 549.33,105.68 548.41,105.33 C547.24,104.88 546.87,105.11 547.19,106.09 C547.45,106.87 548.86,107.64 550.33,107.82 C553.39,108.18 553.70,109.17 551.36,111.12 C550.29,112.00 547.49,112.42 543.38,112.30 C539.89,112.21 536.78,112.55 536.46,113.07 C536.14,113.58 534.81,113.74 533.50,113.41 C532.19,113.08 530.59,113.14 529.95,113.53 C529.31,113.93 525.80,114.23 522.14,114.20 C518.49,114.17 512.44,114.82 508.71,115.66 C503.49,116.83 501.59,116.91 500.51,116.01 C499.71,115.35 498.15,115.14 496.92,115.52 C495.56,115.96 494.45,115.73 493.95,114.91 C493.29,113.85 492.63,113.86 490.32,114.95 C486.59,116.72 483.00,116.88 483.00,115.28 C483.00,113.75 480.32,113.55 479.82,115.05 C479.44,116.17 473.05,117.94 469.25,117.98 C467.91,117.99 467.00,117.40 467.00,116.50 C467.00,115.68 466.50,115.00 465.89,115.00 C465.28,115.00 465.00,115.56 465.26,116.25 C465.62,117.19 463.51,117.54 456.87,117.65 C449.86,117.77 448.00,117.51 448.00,116.40 C448.00,115.63 447.55,115.00 447.00,115.00 C446.45,115.00 446.00,115.40 446.00,115.88 C446.00,117.90 439.95,118.73 433.19,117.65 C430.16,117.16 429.07,117.37 428.64,118.50 C427.42,121.68 429.07,123.00 434.36,123.08 C464.09,123.57 469.87,123.86 471.87,124.93 C473.10,125.59 475.10,126.03 476.30,125.92 C477.51,125.80 479.32,126.06 480.33,126.49 C481.34,126.92 483.96,126.73 486.22,126.05 C489.20,125.16 490.46,125.13 490.97,125.96 C491.45,126.72 492.45,126.78 494.15,126.13 C495.57,125.59 498.53,125.53 501.07,125.99 C503.50,126.43 507.75,126.60 510.50,126.37 C516.54,125.86 517.25,125.84 527.92,125.95 C532.55,126.00 536.90,126.50 537.58,127.07 C538.43,127.78 539.02,127.77 539.47,127.05 C540.39,125.55 546.16,125.81 548.31,127.44 C549.86,128.61 550.53,128.60 552.81,127.41 C556.34,125.58 572.65,125.45 573.25,127.25 C573.59,128.25 574.16,128.24 576.09,127.24 C579.01,125.70 588.86,126.16 589.92,127.87 C590.49,128.80 590.99,128.72 591.96,127.55 C592.67,126.70 593.86,126.00 594.62,126.00 C596.59,126.00 596.33,128.76 594.25,129.83 C591.71,131.13 582.19,132.04 581.82,131.02 C581.64,130.54 580.32,129.85 578.87,129.50 C576.52,128.91 576.30,129.09 576.70,131.21 C577.12,133.38 576.84,133.56 573.33,133.43 C570.30,133.31 563.24,135.70 561.15,137.56 C560.34,138.27 562.23,139.98 563.18,139.39 C564.61,138.50 580.39,138.50 581.83,139.39 C582.47,139.79 583.56,139.76 584.25,139.33 C585.91,138.28 597.34,138.95 598.08,140.14 C598.44,140.71 599.76,140.66 601.47,140.01 C604.58,138.83 608.31,139.57 607.75,141.26 C607.54,141.87 605.76,143.38 603.79,144.63 C600.22,146.89 600.18,146.89 597.95,144.95 C595.46,142.80 593.45,142.46 592.48,144.03 C592.13,144.59 591.32,144.99 590.67,144.91 C587.71,144.54 586.76,145.00 587.82,146.28 C589.76,148.62 587.74,150.07 584.02,149.00 C582.15,148.47 580.42,148.25 580.16,148.51 C579.90,148.77 579.12,148.51 578.43,147.94 C577.56,147.22 576.98,147.22 576.53,147.95 C576.17,148.53 574.83,149.00 573.55,149.00 C572.26,149.00 570.94,149.71 570.61,150.57 C570.22,151.59 569.33,151.92 568.07,151.52 C566.72,151.09 565.79,151.53 565.03,152.95 C563.92,155.02 561.45,155.72 560.83,154.15 C560.65,153.69 556.67,153.02 552.00,152.67 C546.41,152.26 544.01,152.37 545.00,153.01 C545.83,153.54 546.11,153.98 545.63,153.98 C545.15,153.99 545.31,154.67 545.98,155.48 C546.87,156.55 547.71,156.69 549.04,155.98 C551.69,154.56 552.00,154.72 552.00,157.53 C552.00,160.68 549.59,161.74 547.40,159.54 C546.49,158.63 545.23,158.08 544.61,158.32 C543.98,158.56 540.55,158.09 536.98,157.28 C533.42,156.47 529.04,155.58 527.25,155.29 C525.46,155.01 524.00,154.33 524.00,153.78 C524.00,153.23 523.34,153.04 522.53,153.35 C521.72,153.66 520.78,153.46 520.44,152.90 C520.06,152.28 519.31,152.56 518.56,153.59 C517.59,154.92 516.36,155.18 513.15,154.75 C510.80,154.43 508.73,154.63 508.38,155.20 C507.97,155.85 507.48,155.78 507.01,155.01 C506.60,154.35 504.52,153.77 502.38,153.73 C499.88,153.68 497.49,152.82 495.67,151.33 C492.22,148.48 491.37,148.43 490.00,151.00 C488.44,153.91 486.00,153.45 484.69,150.00 C484.07,148.35 482.87,146.99 482.03,146.98 C480.68,146.97 480.68,146.86 481.99,146.03 C483.05,145.35 483.17,144.77 482.41,144.01 C481.17,142.77 477.73,143.76 478.56,145.10 C478.87,145.60 477.97,146.00 476.56,146.00 C475.00,146.00 474.00,145.44 474.00,144.56 C474.00,143.77 473.47,142.79 472.83,142.39 C472.06,141.92 471.87,142.21 472.27,143.25 C472.75,144.51 471.86,144.97 467.81,145.53 C464.17,146.03 462.62,146.72 462.29,148.01 C462.02,149.05 460.63,149.97 458.98,150.22 C456.77,150.54 456.00,150.17 455.52,148.57 C454.91,146.53 454.88,146.53 453.98,148.75 C452.94,151.30 454.21,156.10 455.40,154.15 C455.81,153.50 456.62,153.27 457.22,153.63 C457.81,154.00 459.92,154.47 461.90,154.68 C470.77,155.60 472.76,155.91 476.81,156.94 C479.19,157.54 481.66,157.70 482.31,157.29 C485.05,155.58 488.16,155.90 488.70,157.95 C489.10,159.50 490.11,160.03 492.87,160.14 C505.42,160.62 507.47,161.28 503.99,163.72 C502.35,164.86 502.11,165.51 503.00,166.37 C503.87,167.22 504.85,166.69 506.91,164.25 C508.41,162.46 510.04,161.00 510.52,161.00 C511.00,161.00 512.64,162.20 514.18,163.67 C516.81,166.19 517.07,166.25 518.82,164.66 C520.21,163.40 521.79,163.12 525.04,163.53 C527.44,163.83 529.65,164.31 529.94,164.61 C530.80,165.46 525.65,168.90 524.54,168.22 C523.99,167.87 520.82,167.75 517.51,167.93 C514.21,168.12 486.44,168.44 455.82,168.63 C407.42,168.94 399.94,168.79 398.64,167.49 C396.70,165.56 394.62,165.57 395.36,167.50 C395.87,168.81 392.07,169.00 364.80,169.00 C323.52,169.00 313.21,170.85 289.50,182.52 C252.34,200.81 230.53,230.44 221.98,274.25 C221.36,277.41 220.51,280.00 220.08,280.00 C219.65,280.00 217.27,275.61 214.80,270.25 ZM 463.08 163.73 C462.95,162.53 461.58,162.76 461.15,164.05 C460.93,164.71 461.29,165.07 461.95,164.85 C462.61,164.63 463.12,164.12 463.08,163.73 ZM 459.50 163.00 C459.16,162.45 457.56,162.00 455.94,162.00 C454.32,162.00 453.00,162.45 453.00,163.00 C453.00,163.55 454.60,164.00 456.56,164.00 C458.68,164.00 459.87,163.60 459.50,163.00 ZM 444.75 150.33 C447.99,147.11 448.89,145.00 447.02,145.00 C446.48,145.00 445.76,146.12 445.41,147.50 C444.82,149.86 443.80,150.52 441.50,150.02 C437.07,149.06 435.61,149.07 434.40,150.08 C432.51,151.65 432.64,152.77 434.75,153.25 C438.92,154.19 441.67,153.39 444.75,150.33 ZM 432.00 151.00 C432.00,149.90 431.55,149.00 431.00,149.00 C430.45,149.00 430.00,149.90 430.00,151.00 C430.00,152.10 430.45,153.00 431.00,153.00 C431.55,153.00 432.00,152.10 432.00,151.00 ZM 451.00 151.00 C451.00,150.45 450.52,150.00 449.94,150.00 C449.36,150.00 449.14,149.58 449.46,149.07 C449.77,148.56 449.62,147.88 449.12,147.57 C448.62,147.26 447.94,147.72 447.60,148.59 C446.59,151.22 446.91,152.00 449.00,152.00 C450.10,152.00 451.00,151.55 451.00,151.00 ZM 416.42 150.39 C418.62,149.55 418.40,148.00 416.08,148.00 C413.47,148.00 411.00,149.02 411.00,150.11 C411.00,151.13 414.08,151.29 416.42,150.39 ZM 427.62 149.67 C427.69,149.58 428.06,148.38 428.43,147.00 C429.04,144.72 428.98,144.66 427.69,146.25 C426.91,147.21 425.09,148.00 423.64,148.00 C421.05,148.00 420.29,148.95 421.72,150.39 C422.29,150.96 427.09,150.37 427.62,149.67 ZM 562.77 149.19 C562.99,148.54 562.34,147.70 561.33,147.32 C560.32,146.95 559.16,146.16 558.75,145.57 C558.25,144.85 557.67,144.99 557.00,146.00 C556.11,147.33 555.89,147.33 555.02,146.00 C554.47,145.18 554.02,143.91 554.02,143.19 C554.01,142.47 553.52,142.18 552.93,142.54 C552.34,142.91 552.10,143.82 552.39,144.57 C552.68,145.32 552.50,146.19 552.00,146.50 C549.85,147.83 552.24,149.82 555.51,149.41 C557.37,149.18 559.17,149.47 559.53,150.05 C560.32,151.33 562.23,150.82 562.77,149.19 ZM 400.00 148.67 C400.00,147.93 399.33,147.33 398.50,147.33 C396.92,147.33 396.55,148.22 397.67,149.33 C398.77,150.44 400.00,150.09 400.00,148.67 ZM 405.00 149.00 C405.00,148.45 404.55,148.00 404.00,148.00 C403.45,148.00 403.00,148.45 403.00,149.00 C403.00,149.55 403.45,150.00 404.00,150.00 C404.55,150.00 405.00,149.55 405.00,149.00 ZM 391.00 144.59 C391.00,143.95 390.10,143.36 389.00,143.27 C387.36,143.15 387.17,143.46 387.96,144.93 C388.49,145.92 388.61,147.12 388.21,147.59 C387.82,148.05 388.29,147.83 389.25,147.09 C390.21,146.36 391.00,145.23 391.00,144.59 ZM 537.23 147.44 C537.54,147.13 537.47,145.66 537.07,144.19 C536.32,141.36 533.50,140.43 533.50,143.00 C533.50,143.82 533.05,144.84 532.50,145.25 C531.87,145.72 532.06,146.37 533.00,146.98 C534.69,148.09 536.39,148.28 537.23,147.44 ZM 409.46 146.07 C410.20,144.87 408.32,143.69 406.98,144.51 C405.87,145.20 406.60,147.00 408.00,147.00 C408.49,147.00 409.14,146.58 409.46,146.07 ZM 500.00 146.00 C500.00,145.45 499.10,145.00 498.00,145.00 C496.90,145.00 496.00,145.45 496.00,146.00 C496.00,146.55 496.90,147.00 498.00,147.00 C499.10,147.00 500.00,146.55 500.00,146.00 ZM 551.00 144.00 C551.00,143.45 550.33,143.00 549.50,143.00 C548.67,143.00 548.00,143.45 548.00,144.00 C548.00,144.55 548.67,145.00 549.50,145.00 C550.33,145.00 551.00,144.55 551.00,144.00 ZM 561.00 143.07 C561.00,142.62 559.79,142.25 558.31,142.25 C555.81,142.25 555.75,142.35 557.46,143.59 C559.27,144.92 561.00,144.66 561.00,143.07 ZM 503.50 128.00 C503.84,127.45 503.42,127.00 502.56,127.00 C501.70,127.00 501.00,127.45 501.00,128.00 C501.00,128.55 501.42,129.00 501.94,129.00 C502.46,129.00 503.16,128.55 503.50,128.00 ZM 426.55 121.91 C427.84,119.84 425.43,118.90 422.60,120.36 C420.80,121.30 420.31,121.97 421.18,122.31 C423.45,123.22 425.85,123.04 426.55,121.91 ZM 418.00 120.11 C418.00,119.62 417.33,118.95 416.50,118.64 C414.98,118.05 414.45,119.12 415.67,120.33 C416.62,121.29 418.00,121.16 418.00,120.11 ZM 521.53 107.96 C522.22,106.83 520.32,104.00 518.88,104.00 C518.39,104.00 518.00,104.68 518.00,105.50 C518.00,106.85 516.81,107.44 514.75,107.12 C514.34,107.05 514.00,107.45 514.00,108.00 C514.00,109.33 520.70,109.29 521.53,107.96 ZM 540.99 107.51 C542.43,105.78 540.80,105.28 534.28,105.47 C528.78,105.62 527.39,106.20 528.44,107.90 C529.35,109.37 539.71,109.06 540.99,107.51 ZM 462.00 107.00 C462.00,106.45 461.55,106.00 461.00,106.00 C460.45,106.00 460.00,106.45 460.00,107.00 C460.00,107.55 460.45,108.00 461.00,108.00 C461.55,108.00 462.00,107.55 462.00,107.00 ZM 547.00 168.04 C544.73,167.47 544.68,167.34 546.42,166.67 C547.47,166.27 548.79,166.39 549.35,166.95 C550.78,168.38 549.92,168.78 547.00,168.04 ZM 568.11 103.64 C566.77,102.02 567.94,100.73 569.74,101.84 C570.39,102.24 570.55,103.11 570.11,103.82 C569.49,104.83 569.07,104.79 568.11,103.64 Z" fill="rgb(254,254,254)"/>
</g>
</svg>