<?xml version="1.0" encoding="UTF-8"?>
<svg version="1.1" xmlns="http://www.w3.org/2000/svg" width="510" height="461">
<path d="M0 0 C168.3 0 336.6 0 510 0 C510 152.13 510 304.26 510 461 C341.7 461 173.4 461 0 461 C0 308.87 0 156.74 0 0 Z " fill="#09090B" transform="translate(0,0)"/>
<path d="M0 0 C168.3 0 336.6 0 510 0 C510 152.13 510 304.26 510 461 C341.7 461 173.4 461 0 461 C0 308.87 0 156.74 0 0 Z M152.63793945 27.40112305 C151.32792308 27.43342671 150.0179067 27.46573038 148.66819286 27.49901295 C132.92620645 27.99366251 117.33304415 30.18330815 103 37 C102.08605469 37.42925781 101.17210937 37.85851563 100.23046875 38.30078125 C78.5424254 49.31545277 61.09704565 68.92677653 53.30029297 92.07763672 C51.93560141 96.66874869 50.92577315 101.30255848 50 106 C49.78730469 107.06089844 49.57460938 108.12179688 49.35546875 109.21484375 C46.86435802 122.85322698 46.85041138 136.56882973 46.85473633 150.37841797 C46.85173822 152.30358444 46.84833421 154.22875031 46.84455872 156.15391541 C46.83577779 161.35080839 46.83338302 166.54768487 46.83274293 171.74458456 C46.83202872 175.00373725 46.82988735 178.26288584 46.82724571 181.52203751 C46.81800968 192.92778028 46.81390837 204.33351142 46.81469727 215.73925781 C46.8152966 226.31196982 46.80476856 236.88463057 46.7889536 247.45732963 C46.77580113 256.58059579 46.77051662 265.70384536 46.77115268 274.8271209 C46.77140554 280.25528846 46.76867335 285.68341047 46.75797462 291.11156845 C46.05922081 355.696063 46.05922081 355.696063 78 410 C91.53855012 422.70412484 107.92066306 430.47286555 126 434 C126.89589844 434.19464844 127.79179688 434.38929688 128.71484375 434.58984375 C151.32759668 439.0345312 175.74102752 437.14973656 198.69405675 437.1343255 C203.72633112 437.13175855 208.75860384 437.13415129 213.7908783 437.13571167 C222.23371717 437.13752072 230.67654724 437.13516031 239.11938477 437.13037109 C248.82378122 437.12492917 258.52815665 437.12669578 268.23255259 437.1321975 C276.62731194 437.13676279 285.02206504 437.13736263 293.41682523 437.13475883 C298.40323857 437.13321495 303.38964209 437.1329496 308.37605476 437.13629532 C368.92623586 438.68896572 368.92623586 438.68896572 422 413 C422.65097656 412.49339844 423.30195313 411.98679687 423.97265625 411.46484375 C443.64401925 395.54785619 452.80795346 371.01499618 455.72819269 346.60644269 C456.16212487 342.44533549 456.38180092 338.28379687 456.56513977 334.10507202 C456.60639427 333.19550479 456.64764878 332.28593756 456.69015342 331.34880769 C457.08158387 322.10871412 457.148375 312.87835433 457.14526367 303.63134766 C457.14826793 301.80352207 457.15167328 299.9756971 457.15544128 298.14787292 C457.16415364 293.25309672 457.16661382 288.35833807 457.16725707 283.46355486 C457.16797453 280.38928966 457.17012172 277.31502874 457.17275429 274.24076462 C457.18196318 263.47040276 457.18609452 252.70005316 457.18530273 241.9296875 C457.18470211 231.96119897 457.19526256 221.99276457 457.2110464 212.02428973 C457.22420231 203.40191957 457.22948333 194.77956695 457.22884732 186.15718687 C457.22859484 181.03542182 457.23130653 175.91370508 457.24202538 170.79195023 C458.53691911 113.31381255 458.53691911 113.31381255 434 63 C433.25234375 62.07960937 432.5046875 61.15921875 431.734375 60.2109375 C418.42828039 44.56966735 401.72199758 36.00442845 382 31 C380.79502365 30.67518143 379.5900473 30.35036285 378.34855652 30.01570129 C357.83474586 24.93693702 335.28060331 26.71795885 314.30690932 26.76428056 C309.39636497 26.77320554 304.48582242 26.77130074 299.57527161 26.7709198 C291.32400913 26.77185132 283.0727838 26.7804591 274.8215332 26.79418945 C265.37639813 26.80985171 255.93130377 26.81518913 246.48615664 26.8144539 C236.31170719 26.81376969 226.13727275 26.8207641 215.96282792 26.8299005 C213.08759071 26.83199869 210.21235605 26.8327371 207.33711815 26.83313942 C189.10002868 26.83818984 170.86917909 26.90470708 152.63793945 27.40112305 Z " fill="#09090B" transform="translate(0,0)"/>
<path d="M0 0 C2.91619302 -0.00072256 5.83238164 -0.00287855 8.74857354 -0.00549722 C18.97967784 -0.01466263 29.21076934 -0.01884208 39.4418776 -0.01804566 C48.8937236 -0.01744264 58.34551296 -0.02806117 67.79734462 -0.04378933 C76.00041176 -0.05694082 84.20346049 -0.06222661 92.40653807 -0.06159025 C97.268199 -0.06133812 102.12980898 -0.06403105 106.99145913 -0.0747683 C187.55544816 -0.23996261 187.55544816 -0.23996261 219.20432878 30.47194457 C244.4280841 57.18460212 247.00304736 90.96392342 246.95872331 126.00002074 C246.96008219 127.83035353 246.96186484 129.66068605 246.96403337 131.49101806 C246.96855139 136.41488422 246.96684111 141.33872917 246.96365428 146.26259565 C246.96109941 151.45105693 246.96347703 156.63951654 246.96504045 161.8279779 C246.96685389 170.54206706 246.96447838 179.25614772 246.95969987 187.97023559 C246.95426741 197.9914714 246.95601586 208.01268682 246.96152627 218.03392214 C246.96609124 226.68758168 246.96669126 235.34123515 246.96408761 243.99489552 C246.96254223 249.14124728 246.96228246 254.28758953 246.96562409 259.43394065 C246.96855203 264.28090894 246.96643856 269.12785147 246.96072984 273.97481704 C246.95942788 275.73498468 246.95975155 277.49515456 246.9619925 279.25532126 C246.97278471 288.60782191 246.81962226 297.93551147 246.39546037 307.27927184 C246.35829569 308.12456047 246.32113101 308.9698491 246.28284013 309.84075254 C244.7978843 339.59612049 235.21008543 364.97961006 213.22776628 385.60866332 C210.83368476 387.60113182 208.39820656 389.40652169 205.82932878 391.16725707 C204.85737565 391.84143676 203.88542253 392.51561645 202.88401628 393.21022582 C171.16621499 413.97876155 131.50269482 410.32589377 95.26959753 410.30158257 C90.23778522 410.29901716 85.20597455 410.30140802 80.17416215 410.30296874 C71.72954309 410.30477856 63.28493282 410.30241568 54.8403151 410.29762816 C45.13652745 410.29218963 35.43276083 410.29395007 25.72897369 410.29945457 C17.33506811 410.30402188 8.94116879 410.30461863 0.54726237 410.3020159 C-4.4386388 410.30047266 -9.42453016 410.30020477 -14.41043067 410.30355239 C-69.19071005 410.33525042 -69.19071005 410.33525042 -83.73317122 407.41725707 C-84.64244369 407.24170287 -85.55171615 407.06614867 -86.48854232 406.88527465 C-102.3334045 403.66012677 -115.76364653 396.49476162 -128.17067122 386.16725707 C-128.82422591 385.65936645 -129.4777806 385.15147582 -130.15113997 384.62819457 C-149.72839229 368.76319569 -159.19716931 344.34504839 -161.88548732 319.97491813 C-163.11817359 307.83901153 -163.31974883 295.81252434 -163.3159349 283.62770629 C-163.31893359 281.69752477 -163.32233773 279.76734384 -163.32611251 277.83716369 C-163.33488497 272.63226715 -163.33728777 267.42738709 -163.3379283 262.22248387 C-163.3386427 258.95949646 -163.34078437 255.69651314 -163.34342551 252.43352675 C-163.35265694 241.01827013 -163.35676321 229.60302512 -163.35597396 218.18776488 C-163.35537392 207.59849931 -163.36591693 197.00928481 -163.38171762 186.42003214 C-163.39485467 177.28575248 -163.40015528 168.15148937 -163.39951855 159.01720035 C-163.39926535 153.58075964 -163.40201709 148.14436437 -163.4126966 142.70793319 C-163.42248192 137.58765748 -163.42238644 132.46746969 -163.41517997 127.34719062 C-163.41414692 125.48501176 -163.41641923 123.62282711 -163.42254043 121.76065803 C-163.52876288 87.16120246 -159.01011232 55.62800767 -134.53395247 29.50319457 C-120.99967742 16.12551443 -104.02007294 6.48955755 -85.17067122 3.16725707 C-84.25758099 3.00382717 -83.34449075 2.84039727 -82.40373111 2.67201495 C-74.07999676 1.28190895 -65.9157452 0.74808511 -57.48585677 0.55275512 C-56.05291831 0.51491589 -54.6199817 0.47700669 -53.18704677 0.43903422 C-35.46147288 -0.00185275 -17.72994264 0.00248089 0 0 Z M-76.48875594 33.46204162 C-77.24011231 33.57242847 -77.99146867 33.68281532 -78.76559341 33.79654723 C-95.02763021 36.55364172 -109.27308524 47.35360811 -119.17067122 60.16725707 C-132.2815765 79.01604153 -131.32000971 102.37769505 -131.33180404 124.44533324 C-131.3364406 126.47860847 -131.34146637 128.51188285 -131.3468492 130.54515624 C-131.35989235 136.03921321 -131.36640197 141.533258 -131.37085986 147.02732801 C-131.37380303 150.46817648 -131.37791005 153.90902171 -131.38236403 157.34986854 C-131.39601615 168.14017451 -131.4056946 178.93047298 -131.40956593 189.72078699 C-131.41404458 202.13148579 -131.43159329 214.54207435 -131.46056652 226.95273966 C-131.4822488 236.57779837 -131.49227365 246.2028262 -131.49360704 255.82790905 C-131.49465016 261.56220979 -131.50045251 267.29640658 -131.51842666 273.03068137 C-131.53502157 278.4291908 -131.53700795 283.82751937 -131.52828765 289.22604537 C-131.52752342 291.19430252 -131.53177773 293.16256986 -131.5417459 295.13080192 C-131.6375215 315.23945852 -130.30423132 335.94497434 -117.17067122 352.16725707 C-116.4771556 353.02448363 -115.78363997 353.8817102 -115.06910872 354.76491332 C-110.05749961 360.63540244 -104.80365632 365.2178461 -98.17067122 369.16725707 C-97.39852279 369.62874145 -96.62637435 370.09022582 -95.83082747 370.56569457 C-80.418722 378.6004415 -61.69094693 378.75701251 -44.73146224 378.63722777 C-42.68213962 378.6377383 -40.63281681 378.64000503 -38.58349776 378.64386535 C-33.08797324 378.64922129 -27.59279406 378.63004679 -22.09733105 378.60576439 C-16.31172581 378.58425305 -10.52611904 378.58505448 -4.74048018 378.58307433 C4.9618039 378.57665625 14.66396055 378.55551846 24.36619401 378.52394652 C36.78605267 378.48358206 49.20582873 378.46623939 61.62574506 378.45663714 C72.35805251 378.44831209 83.09034283 378.43109442 93.82263517 378.41159964 C96.11384532 378.40756284 98.40505601 378.40382145 100.69626713 378.40037727 C107.22609734 378.39053697 113.7558793 378.3759322 120.2856791 378.35353827 C122.25519462 378.34746705 124.22471586 378.34298885 126.1942389 378.34029555 C152.98257084 378.30025364 176.13305465 377.19993461 196.42307878 357.74538207 C200.06880231 353.83924972 203.05820792 349.72742573 205.82932878 345.16725707 C206.21604753 344.57042113 206.60276628 343.9735852 207.00120378 343.35866332 C209.59841248 338.87348367 210.79068354 333.98027793 212.01682878 328.97975707 C212.18400407 328.309364 212.35117936 327.63897094 212.52342057 326.94826293 C215.47815505 314.01654247 214.97862576 300.5574991 214.97459245 287.37404418 C214.97759029 285.40460181 214.98099424 283.43516002 214.98477006 281.46571898 C214.99355188 276.14919661 214.99594574 270.83269037 214.99658585 265.51616144 C214.9972998 262.18399794 214.99944064 258.85183846 215.00208306 255.51967597 C215.0113181 243.86452135 215.01542037 232.20937812 215.01463151 220.55421996 C215.01403161 209.73946491 215.024571 198.92475988 215.04037517 188.11001748 C215.05351062 178.7846768 215.05881288 169.45935235 215.0581761 160.13400251 C215.05792282 154.58241111 215.06067889 149.03086421 215.07135415 143.47928214 C215.08113652 138.24985708 215.08104593 133.02051812 215.07383752 127.79108977 C215.07280406 125.88859786 215.07507932 123.98610028 215.08119798 122.08361793 C215.16064361 95.63570407 214.0042627 71.97283474 195.42698503 51.52272582 C176.91927673 33.40465349 152.60067939 31.53596387 127.91868424 31.66554809 C125.81835913 31.66175237 123.71803654 31.65624214 121.61771989 31.64917541 C115.98139456 31.63536844 110.34537955 31.64628473 104.70907187 31.66288662 C98.77097596 31.67687867 92.8328955 31.67026124 86.89478898 31.66675353 C76.93102434 31.66406291 66.96738095 31.67742916 57.00364518 31.70070434 C45.5308764 31.72732131 34.05830996 31.72905211 22.58552086 31.71731597 C11.48552156 31.70648885 0.3855945 31.71276289 -10.7143991 31.72687125 C-15.41006749 31.73258693 -20.10568223 31.73258358 -24.80135131 31.72780585 C-30.34201213 31.72298795 -35.88245501 31.73333429 -41.42307448 31.7547605 C-43.44047602 31.7602631 -45.45789878 31.76085489 -47.4753015 31.75580764 C-57.24479688 31.73445422 -66.8150541 32.00328711 -76.48875594 33.46204162 Z " fill="#C4C4C4" transform="translate(210.17067122459412,26.832742929458618)"/>
<path d="M0 0 C1.57458124 -0.0020264 3.14916156 -0.00494252 4.72373962 -0.00869751 C8.00577834 -0.01309299 11.28757029 -0.00677941 14.56958008 0.00732422 C18.75093983 0.02442881 22.93172222 0.0145494 27.11306095 -0.00339317 C30.35868081 -0.01429456 33.60416641 -0.01075598 36.84979057 -0.0030098 C38.39057931 -0.00102603 39.93138072 -0.003402 41.47215462 -0.01044846 C49.91257803 -0.04059533 57.59099246 0.25976069 65.52734375 3.3984375 C66.6043026 3.80263412 66.6043026 3.80263412 67.70301819 4.21499634 C75.67675587 7.36734877 81.50505274 15.07212172 85.52734375 22.3984375 C87.44555078 27.74922553 87.75543248 32.86530484 87.83984375 38.5234375 C87.85748779 39.20446533 87.87513184 39.88549316 87.89331055 40.5871582 C87.88607869 45.99067087 86.71846702 50.05120366 82.9921875 54.04296875 C77.59557481 58.16979022 74.28328159 59.21872 67.52734375 58.3984375 C62.22382095 55.69664287 58.42902077 52.10346855 56.52734375 46.3984375 C56.26218746 43.56589489 56.08347109 40.73383934 55.90625 37.89453125 C55.75413262 35.22990964 55.75413262 35.22990964 53.52734375 33.3984375 C50.5863978 33.09062622 50.5863978 33.09062622 47.08984375 33.13964844 C46.42952148 33.1361438 45.76919922 33.13263916 45.08886719 33.12902832 C42.90158643 33.12021069 40.71462792 33.12606007 38.52734375 33.1328125 C37.01041603 33.13146585 35.49348874 33.12952533 33.9765625 33.12701416 C30.79553117 33.12406286 27.61461206 33.12836066 24.43359375 33.13769531 C20.35106473 33.14908993 16.26879866 33.14253048 12.1862793 33.13055038 C9.05336517 33.12333189 5.92051364 33.12561964 2.78759766 33.13080597 C1.28206349 33.1321425 -0.22347632 33.13049462 -1.72900391 33.12584686 C-3.83120837 33.12078171 -5.93298383 33.12849123 -8.03515625 33.13964844 C-9.83146484 33.14203522 -9.83146484 33.14203522 -11.6640625 33.14447021 C-14.60979883 33.10854466 -14.60979883 33.10854466 -16.47265625 35.3984375 C-16.96044156 39.41959206 -16.84307783 43.4761145 -16.84765625 47.5234375 C-16.87214844 48.63976562 -16.89664063 49.75609375 -16.921875 50.90625 C-16.94506794 57.4621199 -16.79442113 63.17717955 -12.47265625 68.3984375 C-6.60553076 73.61084286 1.52040562 75.98809492 8.71484375 78.7734375 C10.01239387 79.28422555 11.3095025 79.79613631 12.60620117 80.30908203 C15.40264485 81.41476597 18.20026122 82.51738526 20.99902344 83.6171875 C28.30482651 86.4897119 35.60461927 89.37661199 42.89175415 92.29620361 C44.50828505 92.94149404 46.12640796 93.58281217 47.7461853 94.21990967 C65.12340888 101.05582347 77.52902384 108.49111592 85.43359375 126.3203125 C88.20847567 134.12962304 87.81676422 142.39117305 87.87744141 150.57275391 C87.8939353 152.1959473 87.92113822 153.81907005 87.95947266 155.44189453 C88.25575986 168.09464654 87.05853951 178.02647749 78.83984375 188.2734375 C70.11115384 197.31386634 60.59289214 200.4296304 48.22265625 200.65722656 C45.36573528 200.67785122 42.50930572 200.67296734 39.65234375 200.6640625 C38.11734964 200.66541268 36.58235594 200.66735614 35.04736328 200.66986084 C31.84338272 200.67279551 28.63951431 200.66856815 25.43554688 200.65917969 C21.35054596 200.64778612 17.26580795 200.65435452 13.18081665 200.66632462 C10.01503557 200.67358819 6.84931574 200.67123475 3.68353271 200.66606903 C2.17820199 200.66474494 0.6728655 200.6663362 -0.8324585 200.67102814 C-8.62916804 200.69000282 -15.92019076 200.51618965 -23.47265625 198.3984375 C-24.1697168 198.20727356 -24.86677734 198.01610962 -25.58496094 197.81915283 C-34.7684282 195.16429701 -40.73235961 187.81508599 -45.28125 179.79296875 C-45.87099609 178.60767578 -45.87099609 178.60767578 -46.47265625 177.3984375 C-46.84390625 176.6765625 -47.21515625 175.9546875 -47.59765625 175.2109375 C-49.94724002 167.65870397 -50.45046543 156.58705803 -47.046875 149.37890625 C-43.44090251 145.21698083 -39.70185495 142.60873926 -34.16015625 142.0859375 C-28.9817953 142.52478165 -25.15489238 143.98899642 -21.16015625 147.3359375 C-17.16638538 152.21721301 -17.11730416 156.56538768 -16.81640625 162.71875 C-16.73106802 165.5476186 -16.73106802 165.5476186 -14.47265625 167.3984375 C-11.53193675 167.71322512 -11.53193675 167.71322512 -8.03515625 167.6730957 C-7.37483398 167.67820663 -6.71451172 167.68331757 -6.03417969 167.68858337 C-3.84691356 167.70250753 -1.65996148 167.70152074 0.52734375 167.69921875 C2.04427203 167.7031038 3.56119923 167.70743807 5.078125 167.71220398 C8.25915044 167.719672 11.44006491 167.7193705 14.62109375 167.71411133 C18.70370788 167.70831216 22.78586901 167.72525525 26.8684082 167.748456 C30.00132924 167.76316464 33.1341404 167.76406906 36.26708984 167.76094627 C37.77263284 167.76146082 39.27818177 167.76672338 40.78369141 167.77675819 C42.88604465 167.78905207 44.98750552 167.78237496 47.08984375 167.77075195 C48.88615234 167.77169609 48.88615234 167.77169609 50.71875 167.7726593 C51.64558594 167.64916611 52.57242188 167.52567291 53.52734375 167.3984375 C56.61018786 162.77417134 55.85595461 158.08746354 55.83984375 152.6484375 C55.86401367 151.0396875 55.86401367 151.0396875 55.88867188 149.3984375 C55.89246954 143.23102958 55.41208305 138.86118433 52.52734375 133.3984375 C52.19734375 132.4084375 51.86734375 131.4184375 51.52734375 130.3984375 C49.79527211 129.52928917 49.79527211 129.52928917 47.640625 128.9921875 C42.16131111 127.32518048 36.98021699 125.14114555 31.71484375 122.8984375 C22.58129256 119.04421353 13.3935126 115.36148034 4.15234375 111.7734375 C-6.53597974 107.61674505 -17.0609322 103.20490799 -27.47265625 98.3984375 C-27.47265625 97.7384375 -27.47265625 97.0784375 -27.47265625 96.3984375 C-28.06433594 96.11742187 -28.65601563 95.83640625 -29.265625 95.546875 C-38.51039793 90.73632059 -43.66893158 81.75251753 -47.140625 72.1875 C-49.18999078 64.96528035 -49.03072174 57.51912604 -49.02856445 50.06787109 C-49.03512735 47.53459392 -49.08974067 45.0052433 -49.14648438 42.47265625 C-49.27365671 30.14638488 -46.89160663 20.20451174 -38.15234375 10.921875 C-26.9133471 0.72836641 -14.49953282 -0.06641224 0 0 Z " fill="#C5C5C5" transform="translate(232.47265625,131.6015625)"/>
<path d="M0 0 C-0.33 0.99 -0.66 1.98 -1 3 C-0.34 3.33 0.32 3.66 1 4 C1 4.99 1 5.98 1 7 C-1.31 6.34 -3.62 5.68 -6 5 C-6 4.01 -6 3.02 -6 2 C-6.66 1.67 -7.32 1.34 -8 1 C-5.07175348 0.02391783 -3.04386724 -0.08226668 0 0 Z " fill="#101010" transform="translate(274,217)"/>
<path d="M0 0 C0.66 1.32 1.32 2.64 2 4 C0 6 0 6 -2.625 7.4375 C-3.40875 7.953125 -4.1925 8.46875 -5 9 C-5 9.99 -5 10.98 -5 12 C-6.65 12.33 -8.3 12.66 -10 13 C-3.84965831 3.40546697 -3.84965831 3.40546697 0 0 Z " fill="#B7B7B9" transform="translate(75,57)"/>
<path d="M0 0 C2.97 0.99 5.94 1.98 9 3 C8.34 4.32 7.68 5.64 7 7 C4.03 6.505 4.03 6.505 1 6 C1.33 5.01 1.66 4.02 2 3 C1.34 3 0.68 3 0 3 C0 2.01 0 1.02 0 0 Z " fill="#161618" transform="translate(202,327)"/>
<path d="M0 0 C4.875 1.75 4.875 1.75 6 4 C5.34 4 4.68 4 4 4 C4 4.66 4 5.32 4 6 C1.525 5.01 1.525 5.01 -1 4 C-1 1 -1 1 0 0 Z " fill="#141416" transform="translate(197,224)"/>
<path d="M0 0 C1.84765625 0.33984375 1.84765625 0.33984375 4.0625 0.9375 C5.16271484 1.22947266 5.16271484 1.22947266 6.28515625 1.52734375 C7.13400391 1.76130859 7.13400391 1.76130859 8 2 C4.71536341 4.18975773 1.79303725 4.99806563 -2 6 C-2.33 4.68 -2.66 3.36 -3 2 C-2.34 1.67 -1.68 1.34 -1 1 C-0.67 0.67 -0.34 0.34 0 0 Z " fill="#19191B" transform="translate(204,131)"/>
<path d="M0 0 C2.875 0.3125 2.875 0.3125 6 1 C6.66 1.99 7.32 2.98 8 4 C4.98968256 4.93423645 4.13349732 5.04449911 1 4 C0.3125 1.9375 0.3125 1.9375 0 0 Z " fill="#111112" transform="translate(75,410)"/>
<path d="M0 0 C1.98 0 3.96 0 6 0 C6.33 0.66 6.66 1.32 7 2 C6.01 3.485 6.01 3.485 5 5 C3.35 3.35 1.7 1.7 0 0 Z " fill="#151517" transform="translate(101,387)"/>
</svg>
