<svg version="1.1" id="Layer_1" xmlns="http://www.w3.org/2000/svg" xmlns:xlink="http://www.w3.org/1999/xlink" x="0px" y="0px"
	 width="100%" viewBox="0 0 446 402" enable-background="new 0 0 446 402" xml:space="preserve">
<path fill="#F3F3F5" opacity="1.000000" stroke="none" 
	d="
M313.000000,403.000000 
	C208.666672,403.000000 104.833359,403.000000 1.000028,403.000000 
	C1.000019,269.000031 1.000019,135.000061 1.000009,1.000064 
	C149.666611,1.000043 298.333221,1.000043 446.999878,1.000021 
	C446.999939,134.999939 446.999939,268.999878 446.999969,402.999908 
	C402.500000,403.000000 358.000000,403.000000 313.000000,403.000000 
M93.917503,344.787628 
	C98.737877,345.855377 103.555626,347.839203 108.379021,347.853027 
	C177.028534,348.049774 245.679382,348.143921 314.328613,347.898682 
	C344.422546,347.791168 369.466003,322.655029 369.902863,292.506195 
	C370.235962,269.516724 370.180359,246.516266 369.920959,223.524948 
	C369.568573,192.293167 342.978394,167.885330 313.480194,167.937973 
	C245.163513,168.059906 176.846481,167.971985 108.529587,167.979263 
	C106.699287,167.979446 104.829086,167.872543 103.044907,168.192032 
	C85.783379,171.282990 73.672890,186.568115 75.085693,203.407501 
	C76.778442,223.583633 94.579079,234.435165 108.803040,234.233917 
	C143.787598,233.738953 178.783905,234.074905 213.775497,234.077057 
	C235.770203,234.078415 257.765900,233.954239 279.759308,234.123428 
	C296.424255,234.251602 307.737946,251.074158 301.758392,266.465057 
	C297.896942,276.404053 289.073578,281.724030 276.197754,281.728821 
	C220.544479,281.749420 164.891129,281.686462 109.237976,281.773682 
	C93.119629,281.798950 79.627373,291.914398 76.061737,306.163422 
	C72.161819,321.748322 78.825493,336.572449 93.917503,344.787628 
M367.162628,100.465843 
	C368.095551,96.453537 369.667755,92.470436 369.852570,88.423965 
	C370.728973,69.235199 355.705444,54.078014 335.791321,54.033215 
	C291.791931,53.934238 247.792145,54.000790 203.792526,54.002117 
	C171.959488,54.003078 140.125458,53.862476 108.293892,54.079689 
	C94.887756,54.171165 84.637596,60.425163 78.568047,72.435608 
	C72.871246,83.708458 73.733734,95.032692 80.727333,105.528412 
	C87.872902,116.252205 98.295303,120.396622 111.057991,120.372368 
	C185.723740,120.230461 260.389923,120.263077 335.055878,120.336731 
	C349.646912,120.351128 360.186554,114.049400 367.162628,100.465843 
z"/>
<path fill="#000000" opacity="1.000000" stroke="none" 
	d="
M93.587288,344.602051 
	C78.825493,336.572449 72.161819,321.748322 76.061737,306.163422 
	C79.627373,291.914398 93.119629,281.798950 109.237976,281.773682 
	C164.891129,281.686462 220.544479,281.749420 276.197754,281.728821 
	C289.073578,281.724030 297.896942,276.404053 301.758392,266.465057 
	C307.737946,251.074158 296.424255,234.251602 279.759308,234.123428 
	C257.765900,233.954239 235.770203,234.078415 213.775497,234.077057 
	C178.783905,234.074905 143.787598,233.738953 108.803040,234.233917 
	C94.579079,234.435165 76.778442,223.583633 75.085693,203.407501 
	C73.672890,186.568115 85.783379,171.282990 103.044907,168.192032 
	C104.829086,167.872543 106.699287,167.979446 108.529587,167.979263 
	C176.846481,167.971985 245.163513,168.059906 313.480194,167.937973 
	C342.978394,167.885330 369.568573,192.293167 369.920959,223.524948 
	C370.180359,246.516266 370.235962,269.516724 369.902863,292.506195 
	C369.466003,322.655029 344.422546,347.791168 314.328613,347.898682 
	C245.679382,348.143921 177.028534,348.049774 108.379021,347.853027 
	C103.555626,347.839203 98.737877,345.855377 93.587288,344.602051 
z"/>
<path fill="#000000" opacity="1.000000" stroke="none" 
	d="
M367.040985,100.830963 
	C360.186554,114.049400 349.646912,120.351128 335.055878,120.336731 
	C260.389923,120.263077 185.723740,120.230461 111.057991,120.372368 
	C98.295303,120.396622 87.872902,116.252205 80.727333,105.528412 
	C73.733734,95.032692 72.871246,83.708458 78.568047,72.435608 
	C84.637596,60.425163 94.887756,54.171165 108.293892,54.079689 
	C140.125458,53.862476 171.959488,54.003078 203.792526,54.002117 
	C247.792145,54.000790 291.791931,53.934238 335.791321,54.033215 
	C355.705444,54.078014 370.728973,69.235199 369.852570,88.423965 
	C369.667755,92.470436 368.095551,96.453537 367.040985,100.830963 
z"/>
</svg>