<?xml version="1.0" standalone="no"?>
<!DOCTYPE svg PUBLIC "-//W3C//DTD SVG 20010904//EN"
 "http://www.w3.org/TR/2001/REC-SVG-20010904/DTD/svg10.dtd">
<svg version="1.0" xmlns="http://www.w3.org/2000/svg"
 width="315.000000pt" height="265.000000pt" viewBox="0 0 315.000000 265.000000"
 preserveAspectRatio="xMidYMid meet">

<g transform="translate(0.000000,265.000000) scale(0.100000,-0.100000)"
fill="#000000" stroke="none">
<path d="M1825 2413 c-66 -14 -147 -50 -394 -171 -152 -74 -389 -190 -528
-257 -213 -104 -256 -128 -273 -157 -38 -60 -26 -106 95 -360 l108 -227 368
-123 c203 -67 369 -126 369 -130 0 -13 -174 -96 -205 -99 -67 -5 -78 1 -150
76 -100 105 -102 105 -367 -24 -163 -79 -206 -105 -220 -129 -73 -124 90 -401
310 -531 112 -66 187 -86 332 -86 97 0 137 4 180 19 30 10 292 137 581 282
390 195 533 271 553 294 49 58 40 93 -84 360 l-111 235 -369 123 c-204 68
-370 127 -370 131 0 4 44 29 98 54 71 35 109 47 142 47 42 0 48 -4 110 -69 70
-74 95 -91 134 -91 39 0 439 203 459 234 29 43 22 121 -17 201 -122 254 -363
407 -635 404 -53 -1 -105 -3 -116 -6z"/>
</g>
</svg>
